<svg width="287" height="640" viewBox="0 0 287 640" fill="none" xmlns="http://www.w3.org/2000/svg">
<g clip-path="url(#clip0_511_37267)">
<circle cx="187.416" cy="92.0218" r="45.3324" fill="url(#paint0_linear_511_37267)"/>
<path fill-rule="evenodd" clip-rule="evenodd" d="M191.286 110.425C233.289 99.1709 265.719 84.0038 263.722 76.5488C261.724 69.0938 226.055 72.1739 184.052 83.4285C142.05 94.683 109.619 109.85 111.617 117.305C113.614 124.76 149.284 121.68 191.286 110.425ZM190.158 103.1C219.251 95.3048 241.729 84.8582 240.365 79.767C239.001 74.6757 214.311 76.8679 185.218 84.6632C156.125 92.4586 133.647 102.905 135.011 107.996C136.375 113.088 161.066 110.896 190.158 103.1Z" fill="url(#paint1_linear_511_37267)"/>
<path d="M232.287 85.5698C231.378 79.2445 229.141 73.1829 225.724 67.7828C222.307 62.3826 217.787 57.7659 212.461 54.2355C207.134 50.7051 201.121 48.3407 194.816 47.2975C188.512 46.2544 182.058 46.5559 175.878 48.1825C169.698 49.809 163.932 52.7238 158.958 56.7355C153.983 60.7473 149.914 65.7654 147.015 71.4606C144.117 77.1559 142.455 83.3996 142.139 89.7821C141.824 96.1647 142.861 102.542 145.183 108.495L187.416 92.0218L232.287 85.5698Z" fill="url(#paint2_linear_511_37267)"/>
<circle cx="230.667" cy="27.6667" r="2.66667" fill="white"/>
<path d="M98.1803 66.0518L89.8407 66.4889L87.6793 74.5554L84.6865 66.759L76.3469 67.1961L82.8369 61.9406L79.8442 54.1442L86.848 58.6925L93.338 53.437L91.1765 61.5035L98.1803 66.0518Z" fill="white"/>
<circle cx="166.267" cy="179.267" r="4.26667" fill="white"/>
<path fill-rule="evenodd" clip-rule="evenodd" d="M216.985 355.571C218.13 356.3 219.589 356.505 220.96 356C223.292 355.142 224.487 352.555 223.629 350.223C222.771 347.891 220.184 346.696 217.852 347.554C215.519 348.412 214.324 350.999 215.183 353.331C215.376 353.856 215.656 354.323 216.001 354.722L186.384 387.64C185.221 386.841 183.701 386.599 182.276 387.123C179.944 387.981 178.749 390.568 179.607 392.9C180.331 394.866 182.282 396.024 184.274 395.825L199.799 452.735C198.762 453.241 197.993 454.108 197.592 455.125L110.125 439.134C110.126 438.616 110.036 438.089 109.847 437.574C108.989 435.242 106.402 434.047 104.07 434.905C101.737 435.763 100.543 438.35 101.401 440.682C101.47 440.869 101.549 441.048 101.639 441.22L34.2397 496.67C33.0394 495.413 31.1637 494.916 29.4287 495.554C27.0964 496.412 25.9014 498.999 26.7597 501.331C27.618 503.664 30.2046 504.859 32.5369 504C34.8693 503.142 36.0643 500.555 35.206 498.223C35.1437 498.054 35.0724 497.891 34.9928 497.734L102.404 442.274C103.606 443.502 105.461 443.983 107.178 443.351C108.559 442.843 109.541 441.729 109.935 440.421L197.293 456.392C197.237 457.03 197.318 457.69 197.554 458.331C198.412 460.664 200.999 461.859 203.331 461C205.664 460.142 206.859 457.555 206 455.223C205.241 453.16 203.13 451.987 201.038 452.337L185.535 395.511C187.768 394.598 188.893 392.074 188.054 389.792C187.88 389.32 187.636 388.895 187.337 388.524L216.985 355.571Z" fill="white"/>
<circle cx="55.2" cy="558.2" r="3.2" fill="white"/>
<path d="M189.863 519.291L190.347 528.516L199.27 530.907L190.645 534.218L191.129 543.443L185.315 536.264L176.691 539.574L181.722 531.827L175.909 524.647L184.832 527.038L189.863 519.291Z" fill="white"/>
</g>
<defs>
<linearGradient id="paint0_linear_511_37267" x1="187.416" y1="46.6894" x2="187.416" y2="137.354" gradientUnits="userSpaceOnUse">
<stop stop-color="#3A3C6E"/>
<stop offset="1" stop-color="#737A92"/>
</linearGradient>
<linearGradient id="paint1_linear_511_37267" x1="184.052" y1="83.4285" x2="191.286" y2="110.425" gradientUnits="userSpaceOnUse">
<stop stop-color="#A6C8FF"/>
<stop offset="1" stop-color="#4C7DFF"/>
</linearGradient>
<linearGradient id="paint2_linear_511_37267" x1="187.416" y1="46.6895" x2="187.416" y2="137.354" gradientUnits="userSpaceOnUse">
<stop stop-color="#3A3C6E"/>
<stop offset="1" stop-color="#737A92"/>
</linearGradient>
<clipPath id="clip0_511_37267">
<rect width="287" height="640" fill="white"/>
</clipPath>
</defs>
</svg>
