<svg width="512" height="700" viewBox="0 0 512 700" fill="none" xmlns="http://www.w3.org/2000/svg">
<path fill-rule="evenodd" clip-rule="evenodd" d="M376.553 292.901C376.747 293.627 377.067 294.285 377.482 294.86L331.199 337.746C329.751 336.537 327.756 336.028 325.796 336.553C322.595 337.411 320.695 340.701 321.553 343.901C322.356 346.899 325.292 348.755 328.291 348.275L358.496 414.982C357.039 415.644 355.942 416.847 355.387 418.279L217.451 399.436C217.451 398.921 217.385 398.397 217.245 397.877C216.388 394.676 213.098 392.776 209.897 393.634C206.696 394.492 204.797 397.782 205.654 400.982C205.881 401.828 206.277 402.583 206.797 403.22L130.641 499.511C128.787 498.259 126.422 497.788 124.092 498.412C119.824 499.556 117.291 503.942 118.435 508.21C119.578 512.478 123.965 515.011 128.233 513.867C132.501 512.724 135.033 508.337 133.89 504.069C133.557 502.826 132.948 501.73 132.148 500.83L208.304 404.538C209.66 405.373 211.343 405.67 213.003 405.225C214.994 404.692 216.481 403.217 217.115 401.408L354.986 420.243C354.966 420.82 355.031 421.409 355.188 421.996C356.046 425.197 359.336 427.097 362.537 426.239C365.737 425.381 367.637 422.091 366.779 418.89C366.013 416.032 363.308 414.211 360.458 414.465L330.195 347.632C332.591 346.344 333.879 343.537 333.144 340.796C332.997 340.245 332.777 339.734 332.499 339.268L378.909 296.265C380.311 297.245 382.12 297.621 383.902 297.144C387.102 296.286 389.002 292.996 388.144 289.796C387.287 286.595 383.997 284.695 380.796 285.553C377.595 286.411 375.695 289.701 376.553 292.901Z" fill="white"/>
<path d="M74.213 120.974L58.5762 121.793L54.5236 136.918L48.9121 122.3L33.2753 123.119L45.4441 113.265L39.8327 98.6468L52.9648 107.175L65.1336 97.3208L61.0809 112.446L74.213 120.974Z" fill="white"/>
<circle cx="21" cy="626" r="6" fill="white"/>
<circle cx="328" cy="593" r="7" fill="white"/>
<circle cx="212" cy="250" r="8" fill="white"/>
<circle cx="424" cy="75" r="5" fill="white"/>
<circle cx="282.5" cy="124.5" r="66.5" fill="url(#paint0_linear_511_37171)"/>
<path fill-rule="evenodd" clip-rule="evenodd" d="M288.176 151.496C349.791 134.987 397.365 112.737 394.435 101.801C391.504 90.8653 339.18 95.3837 277.564 111.894C215.949 128.403 168.375 150.653 171.306 161.589C174.236 172.525 226.561 168.006 288.176 151.496ZM286.521 140.751C329.198 129.316 362.173 113.991 360.172 106.523C358.171 99.0544 321.951 102.27 279.274 113.706C236.597 125.141 203.622 140.465 205.624 147.934C207.625 155.403 243.844 152.187 286.521 140.751Z" fill="url(#paint1_linear_511_37171)"/>
<path d="M348.323 115.035C346.989 105.756 343.708 96.8644 338.695 88.9427C333.683 81.021 327.052 74.2485 319.239 69.0696C311.425 63.8907 302.604 60.4223 293.356 58.892C284.107 57.3617 274.639 57.8041 265.574 60.1902C256.508 62.5762 248.05 66.852 240.753 72.737C233.456 78.622 227.486 85.9833 223.234 94.3379C218.982 102.692 216.544 111.852 216.081 121.215C215.618 130.577 217.14 139.932 220.546 148.666L282.5 124.5L348.323 115.035Z" fill="url(#paint2_linear_511_37171)"/>
<defs>
<linearGradient id="paint0_linear_511_37171" x1="282.5" y1="58" x2="282.5" y2="191" gradientUnits="userSpaceOnUse">
<stop stop-color="#3A3C6E"/>
<stop offset="1" stop-color="#737A92"/>
</linearGradient>
<linearGradient id="paint1_linear_511_37171" x1="277.564" y1="111.894" x2="288.176" y2="151.496" gradientUnits="userSpaceOnUse">
<stop stop-color="#A6C8FF"/>
<stop offset="1" stop-color="#4C7DFF"/>
</linearGradient>
<linearGradient id="paint2_linear_511_37171" x1="282.5" y1="58" x2="282.5" y2="191" gradientUnits="userSpaceOnUse">
<stop stop-color="#3A3C6E"/>
<stop offset="1" stop-color="#737A92"/>
</linearGradient>
</defs>
</svg>
