<svg width="144" height="640" viewBox="0 0 144 640" fill="none" xmlns="http://www.w3.org/2000/svg">
<g clip-path="url(#clip0_511_37317)">
<path fill-rule="evenodd" clip-rule="evenodd" d="M105.279 469.002C105.803 469.238 106.417 469.277 107 469.062C108.18 468.628 108.785 467.318 108.351 466.138C107.916 464.957 106.607 464.352 105.426 464.787C104.245 465.221 103.641 466.531 104.075 467.711C104.133 467.869 104.207 468.017 104.294 468.153L89.2141 484.913C88.6734 484.646 88.0282 484.593 87.4174 484.817C86.2367 485.252 85.6318 486.561 86.0663 487.742C86.3923 488.628 87.2111 489.19 88.0984 489.231L96.0008 518.198C95.7147 518.394 95.4824 518.65 95.3149 518.941L50.8699 510.816C50.8474 510.662 50.8087 510.508 50.7529 510.356C50.3185 509.176 49.0091 508.571 47.8284 509.005C46.6591 509.436 46.0545 510.724 46.4651 511.896L12.2389 540.054C11.6379 539.582 10.8135 539.424 10.0438 539.707C8.86313 540.141 8.25822 541.451 8.69271 542.631C9.12719 543.812 10.4365 544.417 11.6172 543.982C12.7775 543.555 13.3817 542.284 12.99 541.119L47.2286 512.951C47.8277 513.409 48.6414 513.561 49.4018 513.281C49.9907 513.064 50.4363 512.63 50.6812 512.103L95.0144 520.208C95.027 520.427 95.0717 520.647 95.1514 520.864C95.5859 522.045 96.8952 522.65 98.0759 522.215C99.2566 521.781 99.8615 520.471 99.427 519.291C99.082 518.353 98.1853 517.779 97.2395 517.799L89.3605 488.918C90.2925 488.371 90.7284 487.219 90.3419 486.169C90.2938 486.038 90.235 485.914 90.1668 485.798L105.279 469.002Z" fill="white"/>
<circle cx="43.2" cy="596.169" r="3.2" fill="white"/>
<path d="M101.991 551.588L102.371 558.844L109.389 560.724L102.606 563.328L102.986 570.583L98.414 564.937L91.6312 567.541L95.5882 561.447L91.0159 555.801L98.0338 557.681L101.991 551.588Z" fill="white"/>
<circle cx="119" cy="263" r="3" fill="white"/>
<circle cx="55.72" cy="88.1985" r="27.2395" fill="url(#paint0_linear_511_37317)"/>
<path fill-rule="evenodd" clip-rule="evenodd" d="M58.0454 99.2564C83.2841 92.4937 102.771 83.3801 101.571 78.9005C100.37 74.4209 78.9374 76.2717 53.6987 83.0344C28.46 89.7971 8.97304 98.9107 10.1733 103.39C11.3736 107.87 32.8067 106.019 58.0454 99.2564ZM57.3676 94.8546C74.8489 90.1705 88.3558 83.8933 87.5361 80.8341C86.7164 77.7748 71.8804 79.0921 54.3991 83.7762C36.9177 88.4603 23.4108 94.7375 24.2305 97.7968C25.0502 100.856 39.8862 99.5388 57.3676 94.8546Z" fill="url(#paint1_linear_511_37317)"/>
<path d="M82.6823 84.3216C82.1357 80.5208 80.7918 76.8785 78.7386 73.6337C76.6855 70.3888 73.9695 67.6147 70.7688 65.4933C67.5681 63.3719 63.955 61.9512 60.1666 61.3244C56.3783 60.6975 52.5002 60.8788 48.7867 61.8561C45.0733 62.8335 41.6085 64.5849 38.6196 66.9955C35.6306 69.4061 33.1851 72.4214 31.4435 75.8436C29.7019 79.2658 28.7034 83.0176 28.5137 86.8527C28.324 90.6879 28.9473 94.5199 30.3427 98.0973L55.72 88.1985L82.6823 84.3216Z" fill="url(#paint2_linear_511_37317)"/>
<circle cx="106.259" cy="117.5" r="2.5" fill="white"/>
<path d="M34.921 132.07L30.4672 132.303L29.3129 136.611L27.7147 132.448L23.2609 132.681L26.7269 129.874L25.1286 125.711L28.869 128.14L32.3349 125.333L31.1806 129.641L34.921 132.07Z" fill="white"/>
<circle cx="53.2588" cy="38.5" r="2.5" fill="white"/>
</g>
<defs>
<linearGradient id="paint0_linear_511_37317" x1="55.72" y1="60.959" x2="55.72" y2="115.438" gradientUnits="userSpaceOnUse">
<stop stop-color="#3A3C6E"/>
<stop offset="1" stop-color="#737A92"/>
</linearGradient>
<linearGradient id="paint1_linear_511_37317" x1="53.6987" y1="83.0344" x2="58.0454" y2="99.2564" gradientUnits="userSpaceOnUse">
<stop stop-color="#A6C8FF"/>
<stop offset="1" stop-color="#4C7DFF"/>
</linearGradient>
<linearGradient id="paint2_linear_511_37317" x1="55.72" y1="60.959" x2="55.72" y2="115.438" gradientUnits="userSpaceOnUse">
<stop stop-color="#3A3C6E"/>
<stop offset="1" stop-color="#737A92"/>
</linearGradient>
<clipPath id="clip0_511_37317">
<rect width="144" height="640" fill="white"/>
</clipPath>
</defs>
</svg>
