<svg width="184" height="241" viewBox="0 0 184 241" fill="none" xmlns="http://www.w3.org/2000/svg">
<g clip-path="url(#clip0_510_36708)">
<path fill-rule="evenodd" clip-rule="evenodd" d="M150.573 241H37.4267C17.0367 224.5 4 199.273 4 171C4 121.294 44.2944 81 94 81C143.706 81 184 121.294 184 171C184 199.273 170.963 224.5 150.573 241Z" fill="#7EC0FC"/>
<path fill-rule="evenodd" clip-rule="evenodd" d="M48.3076 170.619C42.7848 170.619 38.3076 175.096 38.3076 180.619V241H93.6412H148.975V180.619C148.975 175.096 144.498 170.619 138.975 170.619H93.6412H48.3076Z" fill="white"/>
<path d="M32.9871 114.102C32.9871 134.363 54.2693 162.088 81.9361 162.088C91.3391 162.088 68.1024 132.136 68.1024 116.234C68.1024 100.333 60.4797 87.4424 51.0766 87.4424C41.6736 87.4424 32.9871 98.2003 32.9871 114.102Z" fill="black"/>
<path d="M149.087 114.102C149.087 134.363 127.805 162.088 100.138 162.088C90.7351 162.088 113.972 132.136 113.972 116.234C113.972 100.333 121.595 87.4424 130.998 87.4424C140.401 87.4424 149.087 98.2003 149.087 114.102Z" fill="black"/>
<path fill-rule="evenodd" clip-rule="evenodd" d="M106.411 153.558H78.7439V170.62L92.5774 196.212L106.411 170.62V153.558Z" fill="#FFE4B7"/>
<path d="M138.792 98.7977C138.792 106.247 138.663 113.035 143.826 113.035C148.988 113.035 157.488 106.247 157.488 98.7977C157.488 91.3484 153.303 85.3096 148.14 85.3096C135.197 85.3096 138.792 91.3484 138.792 98.7977Z" fill="#FFE3B4"/>
<path d="M142.794 97.9333C142.794 101.371 142.737 104.504 145.031 104.504C147.326 104.504 151.103 101.371 151.103 97.9333C151.103 94.4952 149.243 91.708 146.949 91.708C141.196 91.708 142.794 94.4952 142.794 97.9333Z" fill="#FFD48B"/>
<path d="M37.8492 98.7977C37.8492 106.247 37.9784 113.035 32.8158 113.035C27.6532 113.035 19.1538 106.247 19.1538 98.7977C19.1538 91.3484 23.3389 85.3096 28.5015 85.3096C41.4444 85.3096 37.8492 91.3484 37.8492 98.7977Z" fill="#FFE3B4"/>
<path d="M35.9758 97.9333C35.9758 101.371 36.0332 104.504 33.7387 104.504C31.4443 104.504 27.6667 101.371 27.6667 97.9333C27.6667 94.4952 29.5268 91.708 31.8213 91.708C37.5737 91.708 35.9758 94.4952 35.9758 97.9333Z" fill="#FFD48B"/>
<path d="M51.896 137.702L32.1163 178.085L11.5997 157.524L51.896 137.702Z" fill="black"/>
<path d="M148.975 92.7741C148.975 131.055 129.821 159.955 91.5131 159.955C53.2052 159.955 34.0513 131.055 34.0513 92.7741C34.0513 54.493 59.7778 23.46 91.5131 23.46C123.248 23.46 148.975 54.493 148.975 92.7741Z" fill="#FFECCB"/>
<ellipse cx="70.2309" cy="81.0446" rx="8.51286" ry="8.53097" fill="#1A1A1A"/>
<ellipse cx="114.924" cy="81.0446" rx="8.51286" ry="8.53097" fill="#1A1A1A"/>
<path d="M123.436 117.301C123.436 121.826 120.297 126.166 114.709 129.366C109.122 132.566 101.543 134.363 93.6412 134.363C85.7391 134.363 78.1606 132.566 72.5729 129.366C66.9853 126.166 63.8462 121.826 63.8462 117.301L93.6412 117.301H123.436Z" fill="#FFCDCD"/>
<path d="M97.8977 143.96C97.8977 145.374 97.3371 146.73 96.3393 147.73C95.3415 148.73 93.9882 149.292 92.5771 149.292C91.166 149.292 89.8127 148.73 88.8149 147.73C87.8171 146.73 87.2566 145.374 87.2566 143.96L92.5771 143.96H97.8977Z" fill="#FDDDA5"/>
<path d="M56.8915 122.27C55.9138 121.705 55.2565 120.676 55.0641 119.41C54.8717 118.144 55.16 116.745 55.8656 115.52C56.5711 114.295 57.6361 113.346 58.8263 112.88C60.0165 112.414 61.2344 112.47 62.212 113.035L59.5518 117.653L56.8915 122.27Z" fill="#FDDDA5"/>
<path d="M130.315 122.27C131.292 121.705 131.95 120.676 132.142 119.41C132.335 118.144 132.046 116.745 131.341 115.52C130.635 114.295 129.57 113.346 128.38 112.88C127.19 112.414 125.972 112.47 124.994 113.035L127.655 117.653L130.315 122.27Z" fill="#FDDDA5"/>
<path d="M91.5131 21.3271L85.9838 11.7298L97.0423 11.7298L91.5131 21.3271Z" fill="black"/>
<path d="M96.7004 99.972L92.5771 91.708V106.637C96.0009 106.637 98.2289 103.036 96.7004 99.972Z" fill="#FDDDA5" stroke="#FDDDA5" stroke-linecap="round" stroke-linejoin="round"/>
<rect width="84.7393" height="4.26096" transform="matrix(0.706355 -0.707858 0.706355 0.707858 30.593 85.5762)" fill="#FDDDA5"/>
<rect width="82.8562" height="4.26096" transform="matrix(0.706355 0.707858 -0.706355 0.707858 94.5227 27.7256)" fill="#FDDDA5"/>
<path d="M96.7455 22.5845C93.786 19.6187 89.9232 17.6161 85.3778 16.6911C80.8323 15.7661 75.6932 15.9368 70.2538 17.1934C64.8144 18.45 59.1814 20.768 53.6762 24.015C48.171 27.2619 42.9015 31.3743 38.1686 36.1173C33.4357 40.8602 29.3321 46.1409 26.092 51.6578C22.852 57.1747 20.5389 62.8198 19.2849 68.2707C18.031 73.7217 17.8607 78.8717 18.7837 83.4269C19.7068 87.982 21.7051 91.853 24.6646 94.8188L60.7051 58.7017L96.7455 22.5845Z" fill="black"/>
<path d="M158.464 94.8187C161.423 91.8528 163.421 87.9818 164.345 83.4267C165.268 78.8716 165.097 73.7215 163.843 68.2706C162.589 62.8197 160.276 57.1746 157.036 51.6577C153.796 46.1408 149.693 40.8601 144.96 36.1171C140.227 31.3742 134.957 27.2618 129.452 24.0148C123.947 20.7679 118.314 18.4499 112.874 17.1933C107.435 15.9367 102.296 15.766 97.7505 16.691C93.205 17.616 89.3423 19.6186 86.3827 22.5844L122.423 58.7015L158.464 94.8187Z" fill="black"/>
<path d="M83.0002 205.809L92.5772 196.212L78.7438 170.619L72.3591 175.951L83.0002 205.809Z" fill="#F2F2F2" stroke="#F2F2F2" stroke-linecap="round" stroke-linejoin="round"/>
<path d="M103.218 205.809L93.6413 196.212L107.475 170.619L113.859 175.951L103.218 205.809Z" fill="#F2F2F2" stroke="#F2F2F2" stroke-linecap="round" stroke-linejoin="round"/>
<ellipse cx="94.7055" cy="218.606" rx="3.19232" ry="3.19911" fill="#D4D2D2"/>
<ellipse cx="94.7055" cy="231.402" rx="3.19232" ry="3.19912" fill="#D4D2D2"/>
<ellipse cx="65.9744" cy="78.912" rx="2.12821" ry="2.13274" fill="white"/>
<ellipse cx="110.667" cy="78.912" rx="2.12822" ry="2.13274" fill="white"/>
<path d="M77.0621 69.5991L57.4616 69.5991L66.2452 61.8602L77.0621 69.5991Z" fill="#1A1A1A"/>
<path d="M107.636 69.5991L127.237 69.5991L118.453 61.8602L107.636 69.5991Z" fill="#1A1A1A"/>
</g>
<defs>
<clipPath id="clip0_510_36708">
<rect width="184" height="241" fill="white"/>
</clipPath>
</defs>
</svg>
