<svg width="180" height="233" viewBox="0 0 180 233" fill="none" xmlns="http://www.w3.org/2000/svg">
<g clip-path="url(#clip0_510_36713)">
<path fill-rule="evenodd" clip-rule="evenodd" d="M146.573 233H33.4267C13.0367 216.5 0 191.273 0 163C0 113.294 40.2944 73 90 73C139.706 73 180 113.294 180 163C180 191.273 166.963 216.5 146.573 233Z" fill="#7EC0FC"/>
<path fill-rule="evenodd" clip-rule="evenodd" d="M44.9402 162.4C39.4173 162.4 34.9402 166.878 34.9402 172.4V232H89.6566H144.373V172.4C144.373 166.878 139.896 162.4 134.373 162.4H89.6566H44.9402Z" fill="#221D1A"/>
<path fill-rule="evenodd" clip-rule="evenodd" d="M102.284 145.527H74.9253V162.4L88.6045 187.709L102.284 162.4V145.527Z" fill="#FFE4B7"/>
<path d="M150.687 69.6002C150.687 103.38 122.42 130.764 87.5523 130.764C52.6842 130.764 24.418 103.38 24.418 69.6002C24.418 26.3638 52.6842 8.43652 87.5523 8.43652C122.42 8.43652 150.687 27.4183 150.687 69.6002Z" fill="black"/>
<ellipse cx="87.5523" cy="57.9998" rx="56.8209" ry="45.3455" fill="black"/>
<path d="M138.513 91.3747C138.513 98.7414 138.385 105.454 143.49 105.454C148.595 105.454 157 98.7414 157 91.3747C157 84.008 152.862 78.0361 147.757 78.0361C134.958 78.0361 138.513 84.008 138.513 91.3747Z" fill="#FFE3B4"/>
<path d="M142.47 90.5195C142.47 93.9196 142.413 97.0178 144.682 97.0178C146.951 97.0178 150.687 93.9196 150.687 90.5195C150.687 87.1195 148.847 84.3633 146.578 84.3633C140.89 84.3633 142.47 87.1195 142.47 90.5195Z" fill="#FFD48B"/>
<path d="M34.4868 91.3747C34.4868 98.7414 34.6146 105.454 29.5096 105.454C24.4046 105.454 16 98.7414 16 91.3747C16 84.008 20.1384 78.0361 25.2434 78.0361C38.042 78.0361 34.4868 84.008 34.4868 91.3747Z" fill="#FFE3B4"/>
<path d="M32.6343 90.5195C32.6343 93.9196 32.6911 97.0178 30.4222 97.0178C28.1534 97.0178 24.418 93.9196 24.418 90.5195C24.418 87.1195 26.2573 84.3633 28.5262 84.3633C34.2144 84.3633 32.6343 87.1195 32.6343 90.5195Z" fill="#FFD48B"/>
<path d="M144.373 85.4185C144.373 123.275 125.433 151.855 87.5523 151.855C49.6717 151.855 30.7314 123.275 30.7314 85.4185C30.7314 47.5619 56.171 16.873 87.5523 16.873C118.934 16.873 144.373 47.5619 144.373 85.4185Z" fill="#FFECCB"/>
<ellipse cx="66.5075" cy="73.8182" rx="8.41791" ry="8.43636" fill="#1A1A1A"/>
<ellipse cx="110.702" cy="73.8182" rx="8.41791" ry="8.43636" fill="#1A1A1A"/>
<path d="M117.119 109.673C118.224 109.673 119.139 110.577 118.915 111.659C118.14 115.402 115.192 118.911 110.49 121.603C104.965 124.768 97.4708 126.545 89.6568 126.545C81.8428 126.545 74.3488 124.768 68.8235 121.603C64.1219 118.911 61.1734 115.402 60.3988 111.659C60.175 110.577 61.0895 109.673 62.1941 109.673H65.0611C66.1657 109.673 67.0383 110.583 67.3261 111.649C68.0548 114.349 70.2639 116.867 73.6792 118.823C77.9167 121.249 83.664 122.613 89.6568 122.613C95.6495 122.613 101.397 121.249 105.634 118.823C109.05 116.867 111.259 114.349 111.987 111.649C112.275 110.583 113.148 109.673 114.252 109.673H117.119Z" fill="#FDDDA5"/>
<path d="M93.8656 136.036C93.8656 137.435 93.3113 138.776 92.3247 139.765C91.338 140.754 89.9998 141.309 88.6045 141.309C87.2091 141.309 85.8709 140.754 84.8842 139.765C83.8976 138.776 83.3433 137.435 83.3433 136.036L88.6045 136.036H93.8656Z" fill="#FDDDA5"/>
<path d="M53.3166 114.587C52.3499 114.028 51.6999 113.01 51.5097 111.758C51.3194 110.506 51.6045 109.123 52.3022 107.912C52.9999 106.701 54.053 105.761 55.2299 105.3C56.4068 104.84 57.6111 104.895 58.5778 105.454L55.9472 110.021L53.3166 114.587Z" fill="#FDDDA5"/>
<path d="M125.921 114.587C126.888 114.028 127.538 113.01 127.728 111.758C127.918 110.506 127.633 109.123 126.936 107.912C126.238 106.701 125.185 105.761 124.008 105.3C122.831 104.84 121.627 104.895 120.66 105.454L123.291 110.021L125.921 114.587Z" fill="#FDDDA5"/>
<path d="M87.5523 12.6543L82.0847 3.16339L93.0199 3.16339L87.5523 12.6543Z" fill="black"/>
<path d="M92.6819 92.536L88.6045 84.3633V99.1269C91.9901 99.1269 94.1933 95.5655 92.6819 92.536Z" fill="#FDDDA5" stroke="#FDDDA5" stroke-linecap="round" stroke-linejoin="round"/>
<path d="M79.688 196.145L89.6566 185.792L75.2575 158.182L68.6118 163.934L79.688 196.145Z" fill="#8E8E8E" stroke="#8E8E8E" stroke-linecap="round" stroke-linejoin="round"/>
<path d="M97.5207 196.145L87.5521 185.792L101.951 158.182L108.597 163.934L97.5207 196.145Z" fill="#8E8E8E" stroke="#8E8E8E" stroke-linecap="round" stroke-linejoin="round"/>
<ellipse cx="62.2986" cy="71.7087" rx="2.10448" ry="2.10909" fill="white"/>
<ellipse cx="106.493" cy="71.7087" rx="2.10448" ry="2.10909" fill="white"/>
<path d="M92.7604 45.9541L106.107 23.5374L115.128 32.5783L92.7604 45.9541Z" fill="black"/>
<path d="M78.0292 48.0635L91.3758 25.6468L100.397 34.6877L78.0292 48.0635Z" fill="black"/>
<path d="M65.4023 45.9541L78.7488 23.5374L87.7699 32.5783L65.4023 45.9541Z" fill="black"/>
<path d="M52.7753 45.9541L66.1219 23.5374L75.1429 32.5783L52.7753 45.9541Z" fill="black"/>
<path d="M35.9396 52.2812L49.2862 29.8646L58.3072 38.9054L35.9396 52.2812Z" fill="black"/>
<path d="M124.988 50.1719L102.62 36.7961L111.641 27.7552L124.988 50.1719Z" fill="black"/>
<path d="M137.615 52.2813L115.247 38.9054L124.268 29.8646L137.615 52.2813Z" fill="black"/>
<path d="M50.7239 34.8002V29.5275L59.1418 22.1456L74.9254 17.9275L91.7612 15.8184L109.649 21.0911L125.433 32.6911L119.119 36.9093H109.649L106.493 32.6911L98.0746 34.8002L88.6045 32.6911L79.1343 29.5275L74.9254 34.8002L67.5597 29.5275L57.0373 39.0184L50.7239 34.8002Z" fill="black" stroke="black" stroke-linecap="round" stroke-linejoin="round"/>
<path d="M73.2626 62.4999L53.8807 62.4999L62.5663 54.8468L73.2626 62.4999Z" fill="#1A1A1A"/>
<path d="M103.496 62.4999L122.878 62.4999L114.192 54.8468L103.496 62.4999Z" fill="#1A1A1A"/>
<rect x="50.1716" y="74.3184" width="30.5672" height="17.9818" rx="2.5" fill="white" fill-opacity="0.44" stroke="#733000"/>
<rect x="98.5747" y="74.3184" width="30.5672" height="17.9818" rx="2.5" fill="white" fill-opacity="0.44" stroke="#733000"/>
<rect width="16.8451" height="2.10794" transform="matrix(0.865551 0.500821 -0.499179 0.866499 35.9924 73.8184)" fill="#733000"/>
<rect width="16.8451" height="2.10794" transform="matrix(-0.865551 0.500821 0.499179 0.866499 142.118 73.8184)" fill="#733000"/>
<path d="M46.5149 42.4803C45.1038 42.3424 41.2461 40.9726 39.7834 42.4803C38.3206 43.988 36.9029 46.2689 35.6111 49.1927C34.3194 52.1165 33.179 55.626 32.2549 59.5208C31.3309 63.4155 30.6413 67.6193 30.2256 71.8921C29.81 76.1649 29.6763 80.4229 29.8323 84.4232C29.9882 88.4235 30.4308 92.0877 31.1347 95.2065C31.8385 98.3253 32.79 100.838 33.9346 102.6C35.0792 104.363 36.3946 105.341 37.8057 105.479L39.7833 71.8921L46.5149 42.4803Z" fill="black"/>
<path d="M129.67 41.6659C131.082 41.528 134.939 40.1581 136.402 41.6659C137.865 43.1736 139.282 45.4545 140.574 48.3783C141.866 51.3021 143.006 54.8116 143.93 58.7063C144.854 62.6011 145.544 66.8049 145.96 71.0776C146.375 75.3504 146.509 79.6085 146.353 83.6088C146.197 87.6091 145.755 91.2732 145.051 94.392C144.347 97.5108 143.395 100.023 142.251 101.786C141.106 103.548 139.791 104.526 138.38 104.664L136.402 71.0776L129.67 41.6659Z" fill="black"/>
<path d="M79.1344 86.4728C79.1344 84.2354 80.243 82.0895 82.2164 80.5074C84.1897 78.9253 86.8661 78.0365 89.6568 78.0365C92.4475 78.0365 95.1239 78.9253 97.0973 80.5074C99.0706 82.0895 100.179 84.2354 100.179 86.4728L98.0488 86.4728C98.0488 84.6884 97.1647 82.977 95.5909 81.7152C94.017 80.4534 91.8825 79.7445 89.6568 79.7445C87.4311 79.7445 85.2966 80.4534 83.7228 81.7152C82.149 82.977 81.2648 84.6884 81.2648 86.4728L79.1344 86.4728Z" fill="#733000"/>
<path d="M106.492 206.69H115.963H125.433V218.501L115.963 223.563L106.492 218.501V206.69Z" fill="#8E8E8E"/>
<rect x="106.492" y="206.69" width="18.9403" height="4.21819" fill="#D9D9D9"/>
</g>
<defs>
<clipPath id="clip0_510_36713">
<rect width="180" height="233" fill="white"/>
</clipPath>
</defs>
</svg>
