<svg width="18" height="18" viewBox="0 0 18 18" fill="none" xmlns="http://www.w3.org/2000/svg">
<g clip-path="url(#clip0_571_4279)">
<path d="M16.3342 3.50967L14.1947 1.37217C13.9335 1.11101 13.584 0.964355 13.2143 0.964355C12.8447 0.964355 12.4951 1.109 12.234 1.37217L9.92972 3.67239C9.66856 3.93355 9.5219 4.28512 9.5219 4.65476C9.5219 5.02641 9.66655 5.37395 9.92972 5.63712L11.7297 7.43913C11.3197 8.39455 10.7305 9.26263 9.994 9.9965C9.25673 10.7378 8.39489 11.3224 7.43864 11.7362L5.63864 9.93422C5.37748 9.67306 5.02793 9.52641 4.65829 9.52641C4.47596 9.52573 4.29534 9.56146 4.127 9.63148C3.95866 9.70151 3.80598 9.80443 3.67793 9.93422L1.37168 12.2344C1.11052 12.4956 0.963867 12.8472 0.963867 13.2168C0.963867 13.5885 1.10851 13.936 1.37168 14.1992L3.50918 16.3367C3.95516 16.7827 4.56989 17.0378 5.2007 17.0378C5.33128 17.0378 5.45784 17.0278 5.58641 17.0057C8.24623 16.5677 10.886 15.1514 13.0174 13.0219C15.1469 10.8885 16.5612 8.24873 17.0032 5.5869C17.1297 4.83154 16.8766 4.05409 16.3342 3.50967ZM15.5788 5.34784C15.1871 7.71637 13.9134 10.0789 11.9949 11.9974C10.0764 13.9159 7.71588 15.1896 5.34735 15.5813C5.05003 15.6315 4.74467 15.5311 4.52771 15.3161L2.42838 13.2168L4.65427 10.9889L7.06097 13.3996L7.07905 13.4177L7.51297 13.257C8.82868 12.7733 10.0235 12.0092 11.0145 11.0178C12.0056 10.0264 12.7692 8.83135 13.2525 7.51547L13.4132 7.08154L10.9864 4.65677L13.2123 2.42886L15.3116 4.52819C15.5286 4.74516 15.629 5.05052 15.5788 5.34784Z" fill="white"/>
</g>
<defs>
<clipPath id="clip0_571_4279">
<rect width="18" height="18" fill="white"/>
</clipPath>
</defs>
</svg>
