<svg width="94" height="25" viewBox="0 0 94 25" fill="none" xmlns="http://www.w3.org/2000/svg">
<g clip-path="url(#clip0_396_14744)">
<path d="M22.9838 17.3329C21.9015 19.7926 20.0249 21.8179 17.6546 23.0842C15.2844 24.3505 12.5577 24.7846 9.91139 24.3168C7.26509 23.8491 4.85238 22.5067 3.05981 20.5046C1.26725 18.5025 0.198588 15.9566 0.0250477 13.2749C-0.148493 10.5932 0.583134 7.93088 2.10271 5.71446C3.62228 3.49803 5.84185 1.85581 8.40579 1.05091C10.9697 0.246013 13.7296 0.325025 16.2433 1.27529C18.757 2.22555 20.879 3.99206 22.2693 6.29179L12 12.5L22.9838 17.3329Z" fill="#F19A9A"/>
<path d="M57.9838 17.3329C56.9015 19.7926 55.0249 21.8179 52.6546 23.0842C50.2844 24.3505 47.5577 24.7846 44.9114 24.3168C42.2651 23.8491 39.8524 22.5067 38.0598 20.5046C36.2673 18.5025 35.1986 15.9566 35.025 13.2749C34.8515 10.5932 35.5831 7.93088 37.1027 5.71446C38.6223 3.49803 40.8418 1.85581 43.4058 1.05091C45.9697 0.246013 48.7296 0.325025 51.2433 1.27529C53.757 2.22555 55.879 3.99206 57.2693 6.29179L47 12.5L57.9838 17.3329Z" fill="#B5AAFF"/>
<path d="M92.9838 17.3329C91.9015 19.7926 90.0249 21.8179 87.6546 23.0842C85.2844 24.3505 82.5577 24.7846 79.9114 24.3168C77.2651 23.8491 74.8524 22.5067 73.0598 20.5046C71.2673 18.5025 70.1986 15.9566 70.025 13.2749C69.8515 10.5932 70.5831 7.93088 72.1027 5.71446C73.6223 3.49803 75.8418 1.85581 78.4058 1.05091C80.9697 0.246013 83.7296 0.325025 86.2433 1.27529C88.757 2.22555 90.879 3.99206 92.2693 6.29179L82 12.5L92.9838 17.3329Z" fill="#83DBD6"/>
</g>
<defs>
<clipPath id="clip0_396_14744">
<rect width="94" height="24" fill="white" transform="translate(0 0.5)"/>
</clipPath>
</defs>
</svg>
