<svg width="140" height="100" viewBox="0 0 140 100" fill="none" xmlns="http://www.w3.org/2000/svg">
<mask id="path-1-inside-1_736_44569" fill="white">
<path fill-rule="evenodd" clip-rule="evenodd" d="M43.3244 70.3821C41.2742 67.6759 39.6026 64.6265 38.4099 61.2915C33.0589 65.9796 30.3014 69.6711 31.297 71.3956C32.2788 73.0961 36.7419 72.5924 43.3244 70.3821ZM102.091 36.4716C107.336 31.8507 110.029 28.216 109.043 26.5089C108.044 24.7788 103.442 25.3303 96.6703 27.6393C98.879 30.2422 100.72 33.2061 102.091 36.4716ZM95.1637 25.9779C112.282 18.4289 124.849 15.3763 126.927 18.9743C129.039 22.6335 119.77 32.25 104.204 43.546C107.425 60.9137 96.7854 78.1122 79.4324 82.7619C68.2004 85.7715 56.7755 82.8217 48.5148 75.8507C30.3454 84.0706 16.8411 87.521 14.6809 83.7795C12.5558 80.0986 21.9483 70.3898 37.6812 59.007C37.6423 58.8687 37.6042 58.73 37.5669 58.5908C32.6808 40.3553 43.5025 21.6115 61.738 16.7253C74.1566 13.3978 86.8109 17.3552 95.1637 25.9779Z"/>
</mask>
<path fill-rule="evenodd" clip-rule="evenodd" d="M43.3244 70.3821C41.2742 67.6759 39.6026 64.6265 38.4099 61.2915C33.0589 65.9796 30.3014 69.6711 31.297 71.3956C32.2788 73.0961 36.7419 72.5924 43.3244 70.3821ZM102.091 36.4716C107.336 31.8507 110.029 28.216 109.043 26.5089C108.044 24.7788 103.442 25.3303 96.6703 27.6393C98.879 30.2422 100.72 33.2061 102.091 36.4716ZM95.1637 25.9779C112.282 18.4289 124.849 15.3763 126.927 18.9743C129.039 22.6335 119.77 32.25 104.204 43.546C107.425 60.9137 96.7854 78.1122 79.4324 82.7619C68.2004 85.7715 56.7755 82.8217 48.5148 75.8507C30.3454 84.0706 16.8411 87.521 14.6809 83.7795C12.5558 80.0986 21.9483 70.3898 37.6812 59.007C37.6423 58.8687 37.6042 58.73 37.5669 58.5908C32.6808 40.3553 43.5025 21.6115 61.738 16.7253C74.1566 13.3978 86.8109 17.3552 95.1637 25.9779Z" fill="white"/>
<path d="M43.3244 70.3821L43.9611 72.278L46.599 71.3923L44.9186 69.1743L43.3244 70.3821ZM38.4099 61.2915L40.2931 60.618L39.3031 57.85L37.0919 59.7872L38.4099 61.2915ZM31.297 71.3956L29.565 72.3956L29.565 72.3956L31.297 71.3956ZM102.091 36.4716L100.247 37.2457L101.324 39.8124L103.413 37.9723L102.091 36.4716ZM109.043 26.5089L107.311 27.5089L107.311 27.5089L109.043 26.5089ZM96.6703 27.6393L96.0248 25.7463L93.2452 26.6941L95.1453 28.9333L96.6703 27.6393ZM126.927 18.9743L128.659 17.9743L128.659 17.9743L126.927 18.9743ZM95.1637 25.9779L93.7271 27.3695L94.6962 28.3699L95.9706 27.8079L95.1637 25.9779ZM104.204 43.546L103.029 41.9273L102.007 42.669L102.237 43.9107L104.204 43.546ZM48.5148 75.8507L49.8046 74.3222L48.8402 73.5084L47.6904 74.0285L48.5148 75.8507ZM14.6809 83.7795L16.413 82.7795L16.413 82.7795L14.6809 83.7795ZM37.6812 59.007L38.8536 60.6274L39.9845 59.8092L39.6065 58.4655L37.6812 59.007ZM44.9186 69.1743C42.9894 66.628 41.4162 63.7583 40.2931 60.618L36.5267 61.9651C37.7891 65.4947 39.5589 68.7238 41.7303 71.5898L44.9186 69.1743ZM37.0919 59.7872C34.3719 62.1703 32.2121 64.383 30.8469 66.2912C30.1684 67.2395 29.6144 68.2105 29.3231 69.1644C29.0325 70.116 28.9342 71.303 29.565 72.3956L33.0291 70.3956C33.1621 70.6259 33.0351 70.7048 33.1487 70.3327C33.2616 69.963 33.5448 69.3947 34.1 68.6187C35.2024 67.0779 37.0969 65.1009 39.7278 62.7959L37.0919 59.7872ZM29.565 72.3956C30.187 73.4728 31.2436 73.9824 32.2005 74.2108C33.1576 74.4392 34.2562 74.4516 35.3937 74.347C37.6818 74.1364 40.6133 73.4022 43.9611 72.278L42.6878 68.4861C39.4531 69.5723 36.8617 70.195 35.0272 70.3638C34.1034 70.4488 33.4907 70.4064 33.1292 70.3201C32.7674 70.2337 32.898 70.1685 33.0291 70.3956L29.565 72.3956ZM103.413 37.9723C106.08 35.6225 108.198 33.4396 109.535 31.5546C110.2 30.6176 110.742 29.6563 111.026 28.7102C111.309 27.7649 111.4 26.5904 110.775 25.5089L107.311 27.5089C107.179 27.2809 107.303 27.2009 107.194 27.5616C107.087 27.9216 106.813 28.4779 106.272 29.2405C105.198 30.7548 103.347 32.6998 100.769 34.9709L103.413 37.9723ZM110.775 25.5089C110.142 24.4127 109.06 23.9047 108.088 23.6816C107.113 23.4578 105.99 23.4536 104.824 23.5692C102.478 23.8016 99.4665 24.5727 96.0248 25.7463L97.3157 29.5322C100.646 28.3968 103.321 27.7377 105.219 27.5497C106.175 27.455 106.813 27.493 107.193 27.5803C107.577 27.6682 107.444 27.74 107.311 27.5089L110.775 25.5089ZM95.1453 28.9333C97.224 31.3829 98.9567 34.172 100.247 37.2457L103.935 35.6975C102.484 32.2403 100.534 29.1015 98.1952 26.3452L95.1453 28.9333ZM128.659 17.9743C127.609 16.1566 125.51 15.6038 123.612 15.4926C121.601 15.3747 119.089 15.7 116.243 16.3456C110.522 17.6433 102.968 20.3504 94.3567 24.148L95.9706 27.8079C104.478 24.0564 111.766 21.4628 117.128 20.2465C119.824 19.635 121.913 19.3999 123.378 19.4857C124.106 19.5284 124.588 19.646 124.882 19.7717C125.022 19.8318 125.102 19.8862 125.143 19.9201C125.182 19.9516 125.192 19.9698 125.195 19.9743L128.659 17.9743ZM105.378 45.1647C113.208 39.483 119.531 34.1694 123.655 29.7629C125.706 27.5707 127.298 25.5145 128.237 23.6801C129.12 21.9539 129.725 19.8213 128.659 17.9743L125.195 19.9743C125.197 19.9787 125.208 19.9976 125.216 20.0486C125.225 20.1037 125.232 20.2041 125.212 20.3623C125.169 20.6928 125.02 21.1851 124.676 21.8576C123.985 23.2085 122.682 24.9485 120.734 27.0298C116.86 31.1703 110.765 36.3129 103.029 41.9273L105.378 45.1647ZM102.237 43.9107C105.27 60.2603 95.2515 76.4526 78.9148 80.83L79.9501 84.6937C98.3192 79.7717 109.58 61.5672 106.17 43.1812L102.237 43.9107ZM78.9148 80.83C68.3416 83.6631 57.5866 80.8892 49.8046 74.3222L47.2249 77.3792C55.9644 84.7542 68.0592 87.8799 79.9501 84.6937L78.9148 80.83ZM12.9489 84.7795C14.0378 86.6656 16.2549 87.1937 18.2437 87.2734C20.3659 87.3584 23.0308 86.9738 26.0618 86.2452C32.1539 84.7808 40.2019 81.8067 49.3392 77.6729L47.6904 74.0285C38.6583 78.1147 30.8695 80.9756 25.1269 82.356C22.2407 83.0498 19.9889 83.3401 18.4037 83.2766C17.6139 83.245 17.0863 83.1284 16.7605 82.9964C16.6044 82.9332 16.5156 82.8749 16.4694 82.8378C16.4268 82.8036 16.4155 82.7838 16.413 82.7795L12.9489 84.7795ZM36.5089 57.3867C28.5959 63.1117 22.2 68.4697 18.0266 72.9121C15.9503 75.1222 14.3395 77.194 13.3879 79.0404C12.4934 80.776 11.8765 82.9221 12.9489 84.7795L16.413 82.7795C16.4104 82.7751 16.3994 82.756 16.3911 82.7042C16.3822 82.6482 16.3756 82.5463 16.3967 82.3859C16.4408 82.0508 16.5932 81.5525 16.9435 80.8728C17.647 79.5079 18.9691 77.7508 20.9419 75.6508C24.8668 71.4729 31.0336 66.2851 38.8536 60.6274L36.5089 57.3867ZM39.6065 58.4655C39.5699 58.3352 39.534 58.2044 39.4988 58.0732L35.6351 59.1084C35.6745 59.2556 35.7148 59.4023 35.7559 59.5485L39.6065 58.4655ZM39.4988 58.0732C34.8985 40.9046 45.0871 23.2575 62.2556 18.6572L61.2204 14.7935C41.9179 19.9655 30.463 39.806 35.6351 59.1084L39.4988 58.0732ZM62.2556 18.6572C73.9451 15.525 85.8589 19.247 93.7271 27.3695L96.6002 24.5864C87.7628 15.4634 74.3681 11.2705 61.2204 14.7935L62.2556 18.6572Z" fill="#7EC0FC" mask="url(#path-1-inside-1_736_44569)"/>
</svg>
