<svg width="140" height="80" viewBox="0 0 140 80" fill="none" xmlns="http://www.w3.org/2000/svg">
<mask id="path-1-inside-1_640_52704" fill="white">
<path fill-rule="evenodd" clip-rule="evenodd" d="M43.3244 60.3821C41.2742 57.6759 39.6026 54.6265 38.4099 51.2915C33.0589 55.9796 30.3014 59.6711 31.297 61.3956C32.2788 63.0961 36.7419 62.5924 43.3244 60.3821ZM102.091 26.4716C107.336 21.8507 110.029 18.216 109.043 16.5089C108.044 14.7788 103.442 15.3303 96.6703 17.6393C98.879 20.2422 100.72 23.2061 102.091 26.4716ZM95.1637 15.9779C112.282 8.42893 124.849 5.37635 126.927 8.9743C129.039 12.6335 119.77 22.25 104.204 33.546C107.425 50.9137 96.7854 68.1122 79.4324 72.7619C68.2004 75.7715 56.7755 72.8217 48.5148 65.8507C30.3454 74.0706 16.8411 77.521 14.6809 73.7795C12.5558 70.0986 21.9483 60.3898 37.6812 49.007C37.6423 48.8687 37.6042 48.73 37.5669 48.5908C32.6808 30.3553 43.5025 11.6115 61.738 6.7253C74.1566 3.39776 86.8109 7.35517 95.1637 15.9779Z"/>
</mask>
<path fill-rule="evenodd" clip-rule="evenodd" d="M43.3244 60.3821C41.2742 57.6759 39.6026 54.6265 38.4099 51.2915C33.0589 55.9796 30.3014 59.6711 31.297 61.3956C32.2788 63.0961 36.7419 62.5924 43.3244 60.3821ZM102.091 26.4716C107.336 21.8507 110.029 18.216 109.043 16.5089C108.044 14.7788 103.442 15.3303 96.6703 17.6393C98.879 20.2422 100.72 23.2061 102.091 26.4716ZM95.1637 15.9779C112.282 8.42893 124.849 5.37635 126.927 8.9743C129.039 12.6335 119.77 22.25 104.204 33.546C107.425 50.9137 96.7854 68.1122 79.4324 72.7619C68.2004 75.7715 56.7755 72.8217 48.5148 65.8507C30.3454 74.0706 16.8411 77.521 14.6809 73.7795C12.5558 70.0986 21.9483 60.3898 37.6812 49.007C37.6423 48.8687 37.6042 48.73 37.5669 48.5908C32.6808 30.3553 43.5025 11.6115 61.738 6.7253C74.1566 3.39776 86.8109 7.35517 95.1637 15.9779Z" fill="white"/>
<path d="M43.3244 60.3821L43.9611 62.278L46.599 61.3923L44.9186 59.1743L43.3244 60.3821ZM38.4099 51.2915L40.2931 50.618L39.3031 47.85L37.0919 49.7872L38.4099 51.2915ZM31.297 61.3956L29.565 62.3956L29.565 62.3956L31.297 61.3956ZM102.091 26.4716L100.247 27.2457L101.324 29.8124L103.413 27.9723L102.091 26.4716ZM109.043 16.5089L107.311 17.5089L107.311 17.5089L109.043 16.5089ZM96.6703 17.6393L96.0248 15.7463L93.2452 16.6941L95.1453 18.9333L96.6703 17.6393ZM126.927 8.9743L128.659 7.9743L128.659 7.9743L126.927 8.9743ZM95.1637 15.9779L93.7271 17.3695L94.6962 18.3699L95.9706 17.8079L95.1637 15.9779ZM104.204 33.546L103.029 31.9273L102.007 32.669L102.237 33.9107L104.204 33.546ZM48.5148 65.8507L49.8046 64.3222L48.8402 63.5084L47.6904 64.0285L48.5148 65.8507ZM14.6809 73.7795L16.413 72.7795L16.413 72.7795L14.6809 73.7795ZM37.6812 49.007L38.8536 50.6274L39.9845 49.8092L39.6065 48.4655L37.6812 49.007ZM44.9186 59.1743C42.9894 56.628 41.4162 53.7583 40.2931 50.618L36.5267 51.9651C37.7891 55.4947 39.5589 58.7238 41.7303 61.5898L44.9186 59.1743ZM37.0919 49.7872C34.3719 52.1703 32.2121 54.383 30.8469 56.2912C30.1684 57.2395 29.6144 58.2105 29.3231 59.1644C29.0325 60.116 28.9342 61.303 29.565 62.3956L33.0291 60.3956C33.1621 60.6259 33.0351 60.7048 33.1487 60.3327C33.2616 59.963 33.5448 59.3947 34.1 58.6187C35.2024 57.0779 37.0969 55.1009 39.7278 52.7959L37.0919 49.7872ZM29.565 62.3956C30.187 63.4728 31.2436 63.9824 32.2005 64.2108C33.1576 64.4392 34.2562 64.4516 35.3937 64.347C37.6818 64.1364 40.6133 63.4022 43.9611 62.278L42.6878 58.4861C39.4531 59.5723 36.8617 60.195 35.0272 60.3638C34.1034 60.4488 33.4907 60.4064 33.1292 60.3201C32.7674 60.2337 32.898 60.1685 33.0291 60.3956L29.565 62.3956ZM103.413 27.9723C106.08 25.6225 108.198 23.4396 109.535 21.5546C110.2 20.6176 110.742 19.6563 111.026 18.7102C111.309 17.7649 111.4 16.5904 110.775 15.5089L107.311 17.5089C107.179 17.2809 107.303 17.2009 107.194 17.5616C107.087 17.9216 106.813 18.4779 106.272 19.2405C105.198 20.7548 103.347 22.6998 100.769 24.9709L103.413 27.9723ZM110.775 15.5089C110.142 14.4127 109.06 13.9047 108.088 13.6816C107.113 13.4578 105.99 13.4536 104.824 13.5692C102.478 13.8016 99.4665 14.5727 96.0248 15.7463L97.3157 19.5322C100.646 18.3968 103.321 17.7377 105.219 17.5497C106.175 17.455 106.813 17.493 107.193 17.5803C107.577 17.6682 107.444 17.74 107.311 17.5089L110.775 15.5089ZM95.1453 18.9333C97.224 21.3829 98.9567 24.172 100.247 27.2457L103.935 25.6975C102.484 22.2403 100.534 19.1015 98.1952 16.3452L95.1453 18.9333ZM128.659 7.9743C127.609 6.15662 125.51 5.60383 123.612 5.49258C121.601 5.37474 119.089 5.69999 116.243 6.34556C110.522 7.64327 102.968 10.3504 94.3567 14.148L95.9706 17.8079C104.478 14.0564 111.766 11.4628 117.128 10.2465C119.824 9.635 121.913 9.39991 123.378 9.48573C124.106 9.52841 124.588 9.64598 124.882 9.77168C125.022 9.83183 125.102 9.88617 125.143 9.92015C125.182 9.95162 125.192 9.96981 125.195 9.9743L128.659 7.9743ZM105.378 35.1647C113.208 29.483 119.531 24.1694 123.655 19.7629C125.706 17.5707 127.298 15.5145 128.237 13.6801C129.12 11.9539 129.725 9.82129 128.659 7.9743L125.195 9.9743C125.197 9.97872 125.208 9.99757 125.216 10.0486C125.225 10.1037 125.232 10.2041 125.212 10.3623C125.169 10.6928 125.02 11.1851 124.676 11.8576C123.985 13.2085 122.682 14.9485 120.734 17.0298C116.86 21.1703 110.765 26.3129 103.029 31.9273L105.378 35.1647ZM102.237 33.9107C105.27 50.2603 95.2515 66.4526 78.9148 70.83L79.9501 74.6937C98.3192 69.7717 109.58 51.5672 106.17 33.1812L102.237 33.9107ZM78.9148 70.83C68.3416 73.6631 57.5866 70.8892 49.8046 64.3222L47.2249 67.3792C55.9644 74.7542 68.0592 77.8799 79.9501 74.6937L78.9148 70.83ZM12.9489 74.7795C14.0378 76.6656 16.2549 77.1937 18.2437 77.2734C20.3659 77.3584 23.0308 76.9738 26.0618 76.2452C32.1539 74.7808 40.2019 71.8067 49.3392 67.6729L47.6904 64.0285C38.6583 68.1147 30.8695 70.9756 25.1269 72.356C22.2407 73.0498 19.9889 73.3401 18.4037 73.2766C17.6139 73.245 17.0863 73.1284 16.7605 72.9964C16.6044 72.9332 16.5156 72.8749 16.4694 72.8378C16.4268 72.8036 16.4155 72.7838 16.413 72.7795L12.9489 74.7795ZM36.5089 47.3867C28.5959 53.1117 22.2 58.4697 18.0266 62.9121C15.9503 65.1222 14.3395 67.194 13.3879 69.0404C12.4934 70.776 11.8765 72.9221 12.9489 74.7795L16.413 72.7795C16.4104 72.7751 16.3994 72.756 16.3911 72.7042C16.3822 72.6482 16.3756 72.5463 16.3967 72.3859C16.4408 72.0508 16.5932 71.5525 16.9435 70.8728C17.647 69.5079 18.9691 67.7508 20.9419 65.6508C24.8668 61.4729 31.0336 56.2851 38.8536 50.6274L36.5089 47.3867ZM39.6065 48.4655C39.5699 48.3352 39.534 48.2044 39.4988 48.0732L35.6351 49.1084C35.6745 49.2556 35.7148 49.4023 35.7559 49.5485L39.6065 48.4655ZM39.4988 48.0732C34.8985 30.9046 45.0871 13.2575 62.2556 8.65715L61.2204 4.79345C41.9179 9.96552 30.463 29.806 35.6351 49.1084L39.4988 48.0732ZM62.2556 8.65715C73.9451 5.52498 85.8589 9.24697 93.7271 17.3695L96.6002 14.5864C87.7628 5.46337 74.3681 1.27053 61.2204 4.79345L62.2556 8.65715Z" fill="#7EC0FC" mask="url(#path-1-inside-1_640_52704)"/>
</svg>
