<svg width="48" height="48" viewBox="0 0 48 48" fill="none" xmlns="http://www.w3.org/2000/svg">
<path fill-rule="evenodd" clip-rule="evenodd" d="M30.0001 0.368922C30.0001 0.130854 29.7182 0.00514866 29.5411 0.164222L3.22801 23.796C3.10629 23.9053 3.10629 24.0961 3.22801 24.2054L29.5411 47.8372C29.7182 47.9963 30.0001 47.8706 30.0001 47.6325L30.0001 33.6525C30.0001 33.5726 29.9654 33.4967 29.9051 33.4445L19.2403 24.2085C19.1136 24.0988 19.1136 23.9022 19.2403 23.7925L29.9051 14.5565C29.9654 14.5042 30.0001 14.4283 30.0001 14.3485L30.0001 0.368922Z" fill="#023564"/>
<path d="M24.2887 24.2333C24.1401 24.1132 24.1401 23.8868 24.2887 23.7667L31.0114 18.3327C31.2076 18.1742 31.5 18.3138 31.5 18.5661L31.5 29.4339C31.5 29.6862 31.2076 29.8258 31.0114 29.6673L24.2887 24.2333Z" fill="#023564"/>
</svg>
