<svg width="32" height="32" viewBox="0 0 32 32" fill="none" xmlns="http://www.w3.org/2000/svg">
<path d="M22.8204 20.4772C22.4594 20.8853 22.0807 21.2883 21.6846 21.6844C15.9569 27.4121 8.78105 29.5226 5.65686 26.3984C3.51499 24.2565 3.83352 20.2103 6.09121 16.032M9.18614 11.6333C9.56176 11.2063 9.95688 10.7847 10.3709 10.3707C16.0986 4.64297 23.2745 2.53242 26.3987 5.65661C28.542 7.79996 28.2216 11.8503 25.9596 16.0317M21.6846 10.3707C27.4123 16.0983 29.5228 23.2742 26.3987 26.3984C23.2745 29.5226 16.0986 27.4121 10.3709 21.6844C4.64321 15.9567 2.53266 8.78081 5.65686 5.65661C8.78105 2.53242 15.9569 4.64297 21.6846 10.3707ZM17.3333 15.9997C17.3333 16.736 16.7364 17.333 16 17.333C15.2636 17.333 14.6667 16.736 14.6667 15.9997C14.6667 15.2633 15.2636 14.6663 16 14.6663C16.7364 14.6663 17.3333 15.2633 17.3333 15.9997Z" stroke="#6AA4DA" stroke-width="2" stroke-linecap="round" stroke-linejoin="round"/>
</svg>
