<svg width="18" height="18" viewBox="0 0 18 18" fill="none" xmlns="http://www.w3.org/2000/svg">
<g clip-path="url(#clip0_571_4282)">
<path d="M17.7289 8.85915L9.96641 1.10066L9.44609 0.580352C9.32754 0.462582 9.16722 0.396484 9.00011 0.396484C8.833 0.396484 8.67268 0.462582 8.55413 0.580352L0.271317 8.85915C0.149839 8.98015 0.053833 9.12427 -0.0110341 9.28298C-0.0759012 9.4417 -0.108315 9.6118 -0.106362 9.78325C-0.0983263 10.4904 0.49029 11.0549 1.19743 11.0549H2.05123V17.598H15.949V11.0549H16.8209C17.1644 11.0549 17.4878 10.9203 17.7309 10.6772C17.8506 10.5579 17.9454 10.4161 18.0099 10.2598C18.0744 10.1036 18.1073 9.93618 18.1066 9.76718C18.1066 9.42566 17.972 9.10223 17.7289 8.85915ZM10.1251 16.1516H7.87511V12.0533H10.1251V16.1516ZM14.5026 9.60848V16.1516H11.4108V11.5712C11.4108 11.1272 11.0512 10.7676 10.6073 10.7676H7.39297C6.949 10.7676 6.5894 11.1272 6.5894 11.5712V16.1516H3.49766V9.60848H1.56908L9.00212 2.18147L9.46618 2.64553L16.4331 9.60848H14.5026Z" fill="white"/>
</g>
<defs>
<clipPath id="clip0_571_4282">
<rect width="18" height="18" fill="white"/>
</clipPath>
</defs>
</svg>
