<svg width="128" height="20" viewBox="0 0 128 20" fill="none" xmlns="http://www.w3.org/2000/svg">
<path d="M16.28 19H10.52V12.64H6.2V19H0.44V0.999999H6.2V7.36H10.52V0.999999H16.28V19ZM31.1186 13.84L31.5506 18.688C30.3186 19.184 28.7986 19.432 26.9906 19.432C25.2786 19.432 23.8626 19.248 22.7426 18.88C21.6226 18.496 20.7346 17.92 20.0786 17.152C19.4226 16.384 18.9586 15.408 18.6866 14.224C18.4306 13.04 18.3026 11.64 18.3026 10.024C18.3026 8.456 18.4226 7.088 18.6626 5.92C18.9186 4.736 19.3666 3.752 20.0066 2.968C20.6466 2.168 21.5106 1.568 22.5986 1.168C23.7026 0.768 25.0946 0.568 26.7746 0.568C27.1426 0.568 27.5506 0.592 27.9986 0.639999C28.4626 0.671999 28.9106 0.719999 29.3426 0.783998C29.7906 0.847999 30.2066 0.927999 30.5906 1.024C30.9906 1.104 31.3106 1.2 31.5506 1.312L30.6866 5.728C29.4066 5.456 28.2626 5.32 27.2546 5.32C26.2146 5.32 25.4946 5.416 25.0946 5.608C24.6946 5.8 24.4946 6.184 24.4946 6.76V14.296C24.8626 14.376 25.2306 14.44 25.5986 14.488C25.9826 14.52 26.3746 14.536 26.7746 14.536C28.3746 14.536 29.8226 14.304 31.1186 13.84ZM39.3172 19H33.5572V0.999999H39.3172V19ZM47.9416 13.96L44.7016 17.2L42.2536 14.752L45.4936 11.512L42.2536 8.272L44.7016 5.824L47.9416 9.064L51.1816 5.824L53.6296 8.272L50.3896 11.512L53.6296 14.752L51.1816 17.2L47.9416 13.96ZM65.8123 13.696V12.928H64.3483V8.512H71.2843V18.136C69.0123 19 66.6523 19.432 64.2043 19.432C62.5243 19.432 61.1323 19.232 60.0283 18.832C58.9403 18.432 58.0763 17.84 57.4363 17.056C56.7963 16.256 56.3483 15.272 56.0923 14.104C55.8523 12.92 55.7323 11.544 55.7323 9.976C55.7323 8.312 55.8843 6.888 56.1883 5.704C56.4923 4.504 56.9963 3.528 57.7003 2.776C58.4043 2.008 59.3403 1.448 60.5083 1.096C61.6763 0.743999 63.1243 0.568 64.8523 0.568C65.2363 0.568 65.6843 0.592 66.1963 0.639999C66.7243 0.671999 67.2523 0.728 67.7803 0.808C68.3083 0.872 68.8043 0.952 69.2682 1.048C69.7483 1.128 70.1323 1.216 70.4203 1.312L69.5563 5.728C68.7723 5.6 68.0283 5.504 67.3243 5.44C66.6203 5.36 65.9643 5.32 65.3563 5.32C64.0923 5.32 63.2043 5.416 62.6923 5.608C62.1803 5.8 61.9243 6.184 61.9243 6.76V14.92H63.8203C64.5243 14.92 65.0283 14.848 65.3323 14.704C65.6523 14.544 65.8123 14.208 65.8123 13.696ZM78.8137 16.144L78.1657 19H72.0937L76.7497 0.999999H85.6537L90.3097 19H84.2377L83.5657 16.144H78.8137ZM81.3577 6.52H81.0457L79.8697 11.56H82.5097L81.3577 6.52ZM97.0644 10.264L96.7284 19H90.7044L91.8084 0.999999H99.3204L101.552 10.168H101.768L104 0.999999H111.536L112.616 19H106.592L106.256 10.264H106.064L103.856 19H99.4644L97.2324 10.264H97.0644ZM126.288 8.032V12.208H120.528V14.392H127.584V19H114.768V0.999999H127.44L126.72 5.608H120.528V8.032H126.288Z" fill="white"/>
</svg>
