<svg width="648" height="700" viewBox="0 0 648 700" fill="none" xmlns="http://www.w3.org/2000/svg">
<g clip-path="url(#clip0_511_37156)">
<circle cx="126.5" cy="406.5" r="47.5" transform="rotate(15 126.5 406.5)" fill="url(#paint0_linear_511_37156)"/>
<path fill-rule="evenodd" clip-rule="evenodd" d="M218.82 87.5744C217.726 89.0463 215.974 90 214 90C210.686 90 208 87.3137 208 84C208 80.6863 210.686 78 214 78C217.314 78 220 80.6863 220 84C220 84.6147 219.908 85.2078 219.736 85.7662L288.454 136.16C289.447 135.431 290.673 135 292 135C295.314 135 298 137.686 298 141C298 144.314 295.314 147 292 147C291.393 147 290.806 146.91 290.253 146.742L236.377 275.04C237.961 276.12 239 277.939 239 280C239 281.718 238.278 283.268 237.121 284.361L310.42 382.844C311.497 382.304 312.713 382 314 382C318.418 382 322 385.582 322 390C322 394.418 318.418 398 314 398C309.582 398 306 394.418 306 390C306 387.588 307.068 385.425 308.756 383.958L235.457 285.476C234.707 285.813 233.875 286 233 286C229.686 286 227 283.314 227 280C227 276.686 229.686 274 233 274C233.539 274 234.062 274.071 234.559 274.205L288.461 145.845C286.969 144.754 286 142.99 286 141C286 139.742 286.387 138.574 287.049 137.609L218.82 87.5744Z" fill="white"/>
<path d="M373.882 516.511L374.453 527.394L384.98 530.215L374.805 534.121L375.376 545.004L368.517 536.534L358.343 540.44L364.279 531.3L357.42 522.83L367.947 525.651L373.882 516.511Z" fill="white"/>
<path d="M114.369 55.1703L115.275 72.4676L132.006 76.9506L115.836 83.1578L116.742 100.455L105.842 86.9942L89.6711 93.2014L99.1047 78.6748L88.2043 65.2139L104.935 69.6969L114.369 55.1703Z" fill="white"/>
<circle cx="457" cy="136" r="6" fill="white"/>
<circle cx="120" cy="159" r="5" fill="white"/>
<path d="M218.772 563.893C147.86 511.052 43.3772 521.86 0 533.87V700H645C639.342 667.975 531.842 635.95 499.781 635.95C446.974 635.95 307.412 629.945 218.772 563.893Z" fill="#B9DEFF"/>
<path d="M194.012 577.893C131.125 525.052 38.4678 535.86 0 547.87V714H572C566.982 681.975 471.649 649.95 443.216 649.95C396.386 649.95 272.62 643.945 194.012 577.893Z" fill="#94CCFF"/>
<path d="M142.795 604.107C96.5099 566.877 28.3129 574.492 0 582.954V700H421C417.307 677.437 347.14 654.874 326.213 654.874C291.746 654.874 200.652 650.643 142.795 604.107Z" fill="#7EC0FC"/>
</g>
<defs>
<linearGradient id="paint0_linear_511_37156" x1="126.5" y1="359" x2="126.5" y2="454" gradientUnits="userSpaceOnUse">
<stop stop-color="#6195C5"/>
<stop offset="1" stop-color="#A72FD0"/>
</linearGradient>
<clipPath id="clip0_511_37156">
<rect width="648" height="700" fill="white"/>
</clipPath>
</defs>
</svg>
