<svg width="200" height="640" viewBox="0 0 200 640" fill="none" xmlns="http://www.w3.org/2000/svg">
<g clip-path="url(#clip0_511_37299)">
<path d="M21.7911 518.048C4.07948 493.451 -35.7881 486.041 -58 508.187V640.04H200C197.936 611.336 157.462 588.9 124.281 582.632C91.1012 576.364 71.9052 587.645 21.7911 518.048Z" fill="#B9DEFF"/>
<path d="M26.1593 538.753C11.4538 518.331 -21.647 512.179 -40.0889 530.566V640.04H174.121C172.407 616.208 138.802 597.579 111.254 592.375C83.7053 587.172 67.7675 596.537 26.1593 538.753Z" fill="#94CCFF"/>
<path d="M13.6075 558.923C1.76891 542.482 -24.8789 537.529 -39.7256 552.332V640.464H132.724C131.345 621.278 104.291 606.281 82.113 602.092C59.935 597.902 47.1043 605.442 13.6075 558.923Z" fill="#7EC0FC"/>
<circle cx="67.49" cy="505.49" r="24.0786" transform="rotate(15 67.49 505.49)" fill="url(#paint0_linear_511_37299)"/>
<path d="M42.6165 208.678L42.863 213.381L47.4119 214.599L43.0153 216.287L43.2618 220.99L40.2981 217.33L35.9015 219.018L38.4664 215.068L35.5027 211.408L40.0516 212.627L42.6165 208.678Z" fill="white"/>
<path fill-rule="evenodd" clip-rule="evenodd" d="M129.751 79.2358C129.305 78.9601 128.955 78.5255 128.794 77.9829C128.447 76.8116 129.115 75.5808 130.286 75.2338C131.458 74.8868 132.689 75.555 133.036 76.7262C133.383 77.8975 132.714 79.1283 131.543 79.4754C131.367 79.5274 131.19 79.5566 131.015 79.5647L119.364 111.702C119.729 111.977 120.013 112.368 120.153 112.84C120.5 114.011 119.832 115.242 118.66 115.589C117.489 115.936 116.258 115.268 115.911 114.097C115.888 114.019 115.87 113.941 115.855 113.863L62.1218 107.434C61.868 108.006 61.3747 108.467 60.728 108.658C60.2659 108.795 59.7945 108.774 59.3717 108.626L31.5554 146.498C31.7061 146.701 31.8244 146.933 31.9003 147.189C32.2473 148.36 31.5791 149.591 30.4079 149.938C29.2366 150.285 28.0058 149.617 27.6588 148.446C27.3118 147.274 27.98 146.044 29.1512 145.697C29.6133 145.56 30.0847 145.581 30.5074 145.729L58.3238 107.857C58.1731 107.654 58.0548 107.422 57.9789 107.166C57.6319 105.995 58.3001 104.764 59.4713 104.417C60.6426 104.07 61.8734 104.738 62.2204 105.909C62.2435 105.987 62.2621 106.065 62.2763 106.143L116.01 112.572C116.264 112 116.757 111.539 117.404 111.348C117.65 111.275 117.899 111.247 118.142 111.259L129.751 79.2358Z" fill="white"/>
<path d="M77.6415 46.1405L76.4928 52.3402L82.0341 55.3484L75.7829 56.1718L74.6342 62.3714L71.9195 56.6806L65.6683 57.5039L70.2416 53.1635L67.5269 47.4727L73.0682 50.481L77.6415 46.1405Z" fill="white"/>
<circle cx="65.5793" cy="144.439" r="3" transform="rotate(13.4969 65.5793 144.439)" fill="white"/>
<ellipse cx="158.522" cy="46.4245" rx="2.5" ry="3" transform="rotate(13.4969 158.522 46.4245)" fill="white"/>
<path d="M48.8685 573.071L49.1727 578.875L54.787 580.379L49.3607 582.462L49.6649 588.267L46.0071 583.75L40.5808 585.833L43.7464 580.958L40.0886 576.441L45.7029 577.945L48.8685 573.071Z" fill="white"/>
</g>
<defs>
<linearGradient id="paint0_linear_511_37299" x1="67.49" y1="481.412" x2="67.49" y2="529.569" gradientUnits="userSpaceOnUse">
<stop stop-color="#6195C5"/>
<stop offset="1" stop-color="#A72FD0"/>
</linearGradient>
<clipPath id="clip0_511_37299">
<rect width="200" height="640" fill="white"/>
</clipPath>
</defs>
</svg>
