<svg width="400" height="640" viewBox="0 0 400 640" fill="none" xmlns="http://www.w3.org/2000/svg">
<g clip-path="url(#clip0_511_37251)">
<path d="M90.5465 486.984C59.1267 449.649 -11.5969 438.401 -51 472.016V672.151H406.683C403.022 628.582 331.221 594.527 272.361 585.014C213.5 575.5 179.447 592.622 90.5465 486.984Z" fill="#B9DEFF"/>
<path d="M96.5218 518.413C70.4349 487.414 11.7152 478.075 -21 505.985V672.151H359C355.961 635.977 296.347 607.702 247.477 599.803C198.606 591.905 170.333 606.12 96.5218 518.413Z" fill="#94CCFF"/>
<path d="M63.611 538.384C42.6097 513.429 -4.66258 505.91 -31 528.379V662.151H274.919C272.472 633.029 224.48 610.267 185.137 603.908C145.794 597.549 123.033 608.993 63.611 538.384Z" fill="#7EC0FC"/>
<circle cx="57.7425" cy="378.742" r="30" transform="rotate(15 57.7425 378.742)" fill="url(#paint0_linear_511_37251)"/>
<path fill-rule="evenodd" clip-rule="evenodd" d="M58.9681 112.368C58.1427 113.365 56.8955 114 55.5 114C53.0147 114 51 111.985 51 109.5C51 107.015 53.0147 105 55.5 105C57.9853 105 60 107.015 60 109.5C60 110.122 59.874 110.714 59.6461 111.252L115.303 152.333C116.119 151.51 117.25 151 118.5 151C120.985 151 123 153.015 123 155.5C123 157.985 120.985 160 118.5 160C118.097 160 117.706 159.947 117.334 159.847L73.8605 260.668C75.1444 261.461 76 262.88 76 264.5C76 265.728 75.5079 266.842 74.71 267.654L132.325 343.559C132.97 343.203 133.711 343 134.5 343C136.985 343 139 345.015 139 347.5C139 349.985 136.985 352 134.5 352C132.015 352 130 349.985 130 347.5C130 346.272 130.492 345.158 131.29 344.346L73.675 268.44C73.0304 268.797 72.2889 269 71.5 269C69.0147 269 67 266.985 67 264.5C67 262.015 69.0147 260 71.5 260C71.9036 260 72.2948 260.053 72.6669 260.153L116.14 159.332C114.856 158.54 114 157.12 114 155.5C114 154.733 114.192 154.01 114.531 153.378L58.9681 112.368Z" fill="white"/>
<path d="M177.868 469.071L178.172 474.875L183.787 476.379L178.36 478.462L178.664 484.267L175.007 479.75L169.58 481.833L172.746 476.958L169.088 472.441L174.702 473.945L177.868 469.071Z" fill="white"/>
<path d="M118.634 48.5531L119.009 55.7101L125.931 57.565L119.241 60.1333L119.616 67.2903L115.105 61.7206L108.415 64.289L112.318 58.2784L107.808 52.7087L114.73 54.5637L118.634 48.5531Z" fill="white"/>
<circle cx="286.2" cy="76.2" r="3.2" fill="white"/>
<circle cx="208.2" cy="91.2" r="3.2" fill="white"/>
</g>
<defs>
<linearGradient id="paint0_linear_511_37251" x1="57.7425" y1="348.742" x2="57.7425" y2="408.742" gradientUnits="userSpaceOnUse">
<stop stop-color="#6195C5"/>
<stop offset="1" stop-color="#A72FD0"/>
</linearGradient>
<clipPath id="clip0_511_37251">
<rect width="400" height="640" fill="white"/>
</clipPath>
</defs>
</svg>
