<svg width="80" height="40" viewBox="0 0 80 40" fill="none" xmlns="http://www.w3.org/2000/svg">
<g clip-path="url(#clip0_511_37343)">
<path fill-rule="evenodd" clip-rule="evenodd" d="M2.37467 8.00028C1.42601 8.00028 1.01051 9.19774 1.75527 9.78535L39.763 39.7733C40.1262 40.0599 40.6386 40.0599 41.0018 39.7733L79.0095 9.78535C79.7543 9.19774 79.3388 8.00029 78.3901 8.00029L2.37467 8.00028ZM26.7305 8.0005C25.7812 8.0005 25.3661 9.1992 26.112 9.78629L39.7642 20.5316C40.1271 20.8172 40.6383 20.8172 41.0012 20.5316L54.6534 9.7863C55.3993 9.1992 54.9842 8.0005 54.0349 8.0005L26.7305 8.0005Z" fill="#7EC0FC"/>
<path d="M41.0467 7.43403C40.671 7.75946 40.1132 7.75946 39.7374 7.43403L35.4915 3.7569C34.7916 3.15077 35.2202 2.00098 36.1461 2.00098L44.6381 2.00098C45.564 2.00098 45.9926 3.15077 45.2927 3.75691L41.0467 7.43403Z" fill="#7EC0FC"/>
</g>
<defs>
<clipPath id="clip0_511_37343">
<rect width="80" height="40" fill="white" transform="translate(80 40) rotate(-180)"/>
</clipPath>
</defs>
</svg>
