<svg width="180" height="80" viewBox="0 0 180 80" fill="none" xmlns="http://www.w3.org/2000/svg">
<g id="KeyVisionArrow1440" clip-path="url(#clip0_257_5010)">
<path id="Exclude" fill-rule="evenodd" clip-rule="evenodd" d="M4.0716 8.58321C3.12559 8.58321 2.70847 9.7751 3.44803 10.365L89.9114 79.3296C90.2762 79.6206 90.7938 79.6206 91.1585 79.3296L177.622 10.365C178.362 9.77512 177.944 8.58323 176.998 8.58323L4.0716 8.58321ZM57.2679 8.5834C56.3213 8.5834 55.9046 9.77654 56.6453 10.3659L89.9122 36.8355C90.2766 37.1255 90.793 37.1255 91.1574 36.8355L124.424 10.3659C125.165 9.77655 124.748 8.58341 123.802 8.58341L57.2679 8.5834Z" fill="#7EC0FC"/>
<path id="Polygon 31" d="M91.2375 12.1874C90.8762 12.4686 90.3702 12.4686 90.009 12.1874L76.8641 1.95574C76.1129 1.37101 76.5263 0.166617 77.4783 0.166617L103.768 0.16662C104.72 0.16662 105.134 1.37101 104.382 1.95574L91.2375 12.1874Z" fill="#7EC0FC"/>
</g>
<defs>
<clipPath id="clip0_257_5010">
<rect width="180" height="80" fill="white" transform="translate(180 80) rotate(-180)"/>
</clipPath>
</defs>
</svg>
