<svg width="288" height="180" viewBox="0 0 288 180" fill="none" xmlns="http://www.w3.org/2000/svg">
<g clip-path="url(#clip0_510_36688)">
<circle cx="111.963" cy="86.963" r="52.9136" transform="rotate(45 111.963 86.963)" fill="url(#paint0_linear_510_36688)"/>
<path fill-rule="evenodd" clip-rule="evenodd" d="M99.9677 105.346C143.924 130.724 183.209 144.972 187.714 137.171C192.218 129.369 160.236 102.471 116.279 77.0929C72.3231 51.7147 33.038 37.4662 28.5336 45.268C24.0292 53.0697 56.0114 79.9674 99.9677 105.346ZM105.082 98.3693C135.528 115.947 162.703 125.878 165.779 120.55C168.856 115.222 146.668 96.6528 116.222 79.0748C85.776 61.4968 58.601 51.5663 55.5249 56.8943C52.4487 62.2224 74.6363 80.7914 105.082 98.3693Z" fill="url(#paint1_linear_510_36688)"/>
<path d="M154.323 118.672C158.793 112.701 161.95 105.852 163.586 98.5748C165.223 91.2976 165.303 83.7565 163.821 76.4462C162.338 69.1359 159.327 62.2217 154.984 56.1571C150.641 50.0925 145.066 45.0145 138.623 41.2563C132.179 37.4981 125.015 35.1447 117.598 34.3503C110.181 33.5559 102.68 34.3386 95.5875 36.6469C88.4945 38.9553 81.9698 42.7372 76.4413 47.7446C70.9128 52.7519 66.5054 58.8715 63.5083 65.702L111.963 86.963L154.323 118.672Z" fill="url(#paint2_linear_510_36688)"/>
<circle cx="215.101" cy="35.2811" r="18.0457" transform="rotate(15 215.101 35.2811)" fill="url(#paint3_linear_510_36688)"/>
<path d="M31.3688 128.17L32.2753 145.468L49.0061 149.951L32.8355 156.158L33.742 173.455L22.8416 159.994L6.67107 166.201L16.1047 151.675L5.2043 138.214L21.9351 142.697L31.3688 128.17Z" fill="#FFDA54"/>
<path d="M265 77L268.817 88.7467L281.168 88.7467L271.176 96.0066L274.992 107.753L265 100.493L255.008 107.753L258.824 96.0066L248.832 88.7467L261.183 88.7467L265 77Z" fill="#FFDA54"/>
</g>
<defs>
<linearGradient id="paint0_linear_510_36688" x1="111.963" y1="34.0494" x2="111.963" y2="139.877" gradientUnits="userSpaceOnUse">
<stop stop-color="#3A3C6E"/>
<stop offset="1" stop-color="#737A92"/>
</linearGradient>
<linearGradient id="paint1_linear_510_36688" x1="116.279" y1="77.0929" x2="99.9677" y2="105.346" gradientUnits="userSpaceOnUse">
<stop stop-color="#A6C8FF"/>
<stop offset="1" stop-color="#4C7DFF"/>
</linearGradient>
<linearGradient id="paint2_linear_510_36688" x1="149.378" y1="49.5474" x2="74.5471" y2="124.379" gradientUnits="userSpaceOnUse">
<stop stop-color="#3A3C6E"/>
<stop offset="1" stop-color="#737A92"/>
</linearGradient>
<linearGradient id="paint3_linear_510_36688" x1="215.101" y1="17.2354" x2="215.101" y2="53.3268" gradientUnits="userSpaceOnUse">
<stop stop-color="#6195C5"/>
<stop offset="1" stop-color="#A72FD0"/>
</linearGradient>
<clipPath id="clip0_510_36688">
<rect width="288" height="180" fill="white"/>
</clipPath>
</defs>
</svg>
