<svg width="92" height="120" viewBox="0 0 92 120" fill="none" xmlns="http://www.w3.org/2000/svg">
<g clip-path="url(#clip0_510_36801)">
<path fill-rule="evenodd" clip-rule="evenodd" d="M74.9887 120C85.1435 111.785 91.6363 99.2229 91.6363 85.1451C91.6363 60.4406 71.6418 40.405 46.9495 40.332H46.6787C21.9864 40.405 1.99194 60.4406 1.99194 85.1451C1.99194 99.2229 8.48465 111.785 18.6395 120H74.9887Z" fill="#7EC0FC"/>
<path fill-rule="evenodd" clip-rule="evenodd" d="M29.0781 84.9561C23.5553 84.9561 19.0781 89.4332 19.0781 94.9561V120H46.6356H74.193V94.9561C74.193 89.4332 69.7158 84.9561 64.193 84.9561H46.6356H29.0781Z" fill="white"/>
<path d="M16.4283 56.8144C16.4283 66.9029 27.0274 80.7082 40.8061 80.7082C45.489 80.7082 33.9166 65.794 33.9166 57.8763C33.9166 49.9586 30.1203 43.54 25.4373 43.54C20.7544 43.54 16.4283 48.8967 16.4283 56.8144Z" fill="black"/>
<path d="M74.2489 56.8144C74.2489 66.9029 63.6499 80.7082 49.8711 80.7082C45.1882 80.7082 56.7607 65.794 56.7607 57.8763C56.7607 49.9586 60.557 43.54 65.2399 43.54C69.9228 43.54 74.2489 48.8967 74.2489 56.8144Z" fill="black"/>
<path fill-rule="evenodd" clip-rule="evenodd" d="M52.995 76.46H39.2163V84.9555L46.1057 97.6989L52.995 84.9555V76.46Z" fill="#FFE4B7"/>
<path d="M69.1219 49.1936C69.1219 52.9028 69.0575 56.2828 71.6286 56.2828C74.1997 56.2828 78.4326 52.9028 78.4326 49.1936C78.4326 45.4844 76.3483 42.4775 73.7773 42.4775C67.3314 42.4775 69.1219 45.4844 69.1219 49.1936Z" fill="#FFE3B4"/>
<path d="M71.1148 48.7638C71.1148 50.4757 71.0862 52.0357 72.2289 52.0357C73.3716 52.0357 75.2529 50.4757 75.2529 48.7638C75.2529 47.0519 74.3266 45.6641 73.1839 45.6641C70.319 45.6641 71.1148 47.0519 71.1148 48.7638Z" fill="#FFD48B"/>
<path d="M18.8498 49.1936C18.8498 52.9028 18.9141 56.2828 16.3431 56.2828C13.772 56.2828 9.53906 52.9028 9.53906 49.1936C9.53906 45.4844 11.6233 42.4775 14.1944 42.4775C20.6403 42.4775 18.8498 45.4844 18.8498 49.1936Z" fill="#FFE3B4"/>
<path d="M17.9167 48.7638C17.9167 50.4757 17.9453 52.0357 16.8026 52.0357C15.6599 52.0357 13.7786 50.4757 13.7786 48.7638C13.7786 47.0519 14.7049 45.6641 15.8476 45.6641C18.7125 45.6641 17.9167 47.0519 17.9167 48.7638Z" fill="#FFD48B"/>
<path d="M25.8455 68.5659L15.9947 88.6731L5.77699 78.4356L25.8455 68.5659Z" fill="black"/>
<path d="M74.1929 46.1949C74.1929 65.2561 64.6538 79.6462 45.5756 79.6462C26.4974 79.6462 16.9583 65.2561 16.9583 46.1949C16.9583 27.1338 29.7707 11.6816 45.5756 11.6816C61.3805 11.6816 74.1929 27.1338 74.1929 46.1949Z" fill="#FFECCB"/>
<ellipse cx="34.9767" cy="40.3542" rx="4.23961" ry="4.24779" fill="#1A1A1A"/>
<ellipse cx="57.2347" cy="40.3542" rx="4.2396" ry="4.24779" fill="#1A1A1A"/>
<path d="M61.4741 58.4067C61.4741 60.6599 59.9108 62.8208 57.128 64.414C54.3452 66.0072 50.5709 66.9023 46.6355 66.9023C42.7 66.9023 38.9258 66.0072 36.143 64.414C33.3602 62.8208 31.7969 60.6599 31.7969 58.4067L46.6355 58.4067H61.4741Z" fill="#FFCDCD"/>
<path d="M48.7553 71.6812C48.7553 72.3853 48.4761 73.0606 47.9792 73.5585C47.4823 74.0564 46.8083 74.3361 46.1056 74.3361C45.4028 74.3361 44.7288 74.0564 44.2319 73.5585C43.735 73.0606 43.4558 72.3853 43.4558 71.6812L46.1056 71.6812H48.7553Z" fill="#FDDDA5"/>
<path d="M28.3333 60.8811C27.8464 60.5995 27.519 60.0872 27.4232 59.4568C27.3274 58.8265 27.471 58.1298 27.8224 57.52C28.1737 56.9102 28.7041 56.4373 29.2969 56.2053C29.8896 55.9733 30.4962 56.0011 30.983 56.2828L29.6582 58.582L28.3333 60.8811Z" fill="#FDDDA5"/>
<path d="M64.8999 60.8811C65.3868 60.5995 65.7141 60.0872 65.8099 59.4568C65.9057 58.8265 65.7622 58.1298 65.4108 57.52C65.0594 56.9102 64.529 56.4373 63.9363 56.2053C63.3435 55.9733 62.737 56.0011 62.2501 56.2828L63.575 58.582L64.8999 60.8811Z" fill="#FDDDA5"/>
<path d="M45.5757 10.6191L42.822 5.84038L48.3294 5.84038L45.5757 10.6191Z" fill="black"/>
<path d="M48.1589 49.7784L46.1057 45.6641V53.0977C47.8108 53.0977 48.9203 51.304 48.1589 49.7784Z" fill="#FDDDA5" stroke="#FDDDA5" stroke-linecap="round" stroke-linejoin="round"/>
<rect width="42.198" height="2.12185" transform="matrix(0.706425 -0.707788 0.706425 0.707788 15.2361 42.6104)" fill="#FDDDA5"/>
<rect width="41.2603" height="2.12185" transform="matrix(0.706425 0.707788 -0.706425 0.707788 47.0747 13.8057)" fill="#FDDDA5"/>
<path d="M48.1815 11.2449C46.7076 9.76813 44.7838 8.77099 42.5201 8.3104C40.2563 7.84982 37.6969 7.9348 34.988 8.56051C32.2791 9.18622 29.4737 10.3404 26.7319 11.9571C23.9902 13.5739 21.3659 15.6215 19.0088 17.9832C16.6517 20.3448 14.608 22.9742 12.9944 25.7212C11.3807 28.4682 10.2288 31.279 9.6043 33.9932C8.97979 36.7074 8.89497 39.2717 9.35467 41.5398C9.81437 43.8079 10.8096 45.7354 12.2835 47.2121L30.2325 29.2285L48.1815 11.2449Z" fill="black"/>
<path d="M78.9187 47.2126C80.3926 45.7358 81.3878 43.8084 81.8475 41.5403C82.3072 39.2722 82.2224 36.7078 81.5979 33.9937C80.9734 31.2795 79.8214 28.4687 78.2078 25.7217C76.5942 22.9747 74.5505 20.3453 72.1934 17.9836C69.8363 15.622 67.212 13.5743 64.4702 11.9576C61.7285 10.3409 58.9231 9.18668 56.2142 8.56097C53.5052 7.93526 50.9458 7.85028 48.6821 8.31086C46.4184 8.77145 44.4946 9.76859 43.0207 11.2454L60.9697 29.229L78.9187 47.2126Z" fill="black"/>
<path d="M41.3361 102.478L46.1057 97.6994L39.2163 84.9561L36.0366 87.6109L41.3361 102.478Z" fill="#F2F2F2" stroke="#F2F2F2" stroke-linecap="round" stroke-linejoin="round"/>
<path d="M51.4051 102.478L46.6355 97.6994L53.5249 84.9561L56.7046 87.6109L51.4051 102.478Z" fill="#F2F2F2" stroke="#F2F2F2" stroke-linecap="round" stroke-linejoin="round"/>
<ellipse cx="47.1655" cy="108.85" rx="1.58985" ry="1.59292" fill="#D4D2D2"/>
<ellipse cx="47.1655" cy="115.221" rx="1.58985" ry="1.59292" fill="#D4D2D2"/>
<ellipse cx="32.8568" cy="39.2924" rx="1.0599" ry="1.06194" fill="white"/>
<ellipse cx="55.1148" cy="39.2924" rx="1.0599" ry="1.06194" fill="white"/>
<path d="M38.3788 34.6546L28.6173 34.6546L32.9917 30.8012L38.3788 34.6546Z" fill="#1A1A1A"/>
<path d="M53.6056 34.6546L63.3671 34.6546L58.9927 30.8012L53.6056 34.6546Z" fill="#1A1A1A"/>
</g>
<defs>
<clipPath id="clip0_510_36801">
<rect width="91.6362" height="120" fill="white"/>
</clipPath>
</defs>
</svg>
