<svg width="93" height="120" viewBox="0 0 93 120" fill="none" xmlns="http://www.w3.org/2000/svg">
<g clip-path="url(#clip0_511_36840)">
<path fill-rule="evenodd" clip-rule="evenodd" d="M75.5073 120C86.0114 111.503 92.7273 98.5096 92.7273 83.9485C92.7273 58.3796 72.0191 37.6462 46.4554 37.5967H46.2719C20.7082 37.6462 0 58.3796 0 83.9485C0 98.5096 6.71592 111.503 17.2199 120H75.5073Z" fill="#7EC0FC"/>
<path fill-rule="evenodd" clip-rule="evenodd" d="M27.9998 83.6396C22.4769 83.6396 17.9998 88.1168 17.9998 93.6396V119.485H46.187H74.3742V93.6396C74.3742 88.1168 69.8971 83.6396 64.3743 83.6396H46.187H27.9998Z" fill="#221D1A"/>
<path fill-rule="evenodd" clip-rule="evenodd" d="M52.6918 74.9492H38.5981V83.639L45.645 96.6738L52.6918 83.639V74.9492Z" fill="#FFE4B7"/>
<path d="M77.6266 35.8453C77.6266 53.2426 63.0652 67.3459 45.1028 67.3459C27.1405 67.3459 12.5791 53.2426 12.5791 35.8453C12.5791 13.5777 27.1405 4.34473 45.1028 4.34473C63.0652 4.34473 77.6266 14.1208 77.6266 35.8453Z" fill="black"/>
<ellipse cx="45.1029" cy="29.8715" rx="29.2714" ry="23.3539" fill="black"/>
<path d="M71.3556 47.0601C71.3556 50.8541 71.2898 54.3114 73.9197 54.3114C76.5495 54.3114 80.8792 50.8541 80.8792 47.0601C80.8792 43.2661 78.7472 40.1904 76.1174 40.1904C69.5242 40.1904 71.3556 43.2661 71.3556 47.0601Z" fill="#FFE3B4"/>
<path d="M73.394 46.6198C73.394 48.3709 73.3648 49.9666 74.5336 49.9666C75.7024 49.9666 77.6267 48.3709 77.6267 46.6198C77.6267 44.8687 76.6792 43.4492 75.5104 43.4492C72.5801 43.4492 73.394 44.8687 73.394 46.6198Z" fill="#FFD48B"/>
<path d="M17.7662 47.0601C17.7662 50.8541 17.832 54.3114 15.2022 54.3114C12.5723 54.3114 8.24268 50.8541 8.24268 47.0601C8.24268 43.2661 10.3746 40.1904 13.0044 40.1904C19.5976 40.1904 17.7662 43.2661 17.7662 47.0601Z" fill="#FFE3B4"/>
<path d="M16.8118 46.6198C16.8118 48.3709 16.841 49.9666 15.6722 49.9666C14.5034 49.9666 12.5791 48.3709 12.5791 46.6198C12.5791 44.8687 13.5266 43.4492 14.6954 43.4492C17.6258 43.4492 16.8118 44.8687 16.8118 46.6198Z" fill="#FFD48B"/>
<path d="M74.3743 43.9918C74.3743 63.4888 64.6172 78.208 45.1029 78.208C25.5887 78.208 15.8315 63.4888 15.8315 43.9918C15.8315 24.4949 28.9368 8.68945 45.1029 8.68945C61.269 8.68945 74.3743 24.4949 74.3743 43.9918Z" fill="#FFECCB"/>
<ellipse cx="34.2618" cy="38.0178" rx="4.3365" ry="4.34491" fill="#1A1A1A"/>
<ellipse cx="57.0284" cy="38.0178" rx="4.3365" ry="4.34491" fill="#1A1A1A"/>
<path d="M59.596 56.4838C60.5729 56.4838 61.3871 57.2969 61.0598 58.2173C60.4699 59.876 59.0412 61.4135 56.9193 62.6284C54.0729 64.258 50.2124 65.1736 46.187 65.1736C42.1616 65.1736 38.3011 64.258 35.4547 62.6284C33.3329 61.4135 31.9041 59.876 31.3143 58.2173C30.987 57.2969 31.8012 56.4838 32.7781 56.4838C33.7549 56.4838 34.5257 57.3084 34.9368 58.1945C35.4592 59.3203 36.4927 60.3583 37.9562 61.1962C40.1391 62.4461 43.0999 63.1482 46.187 63.1482C49.2742 63.1482 52.2349 62.4461 54.4179 61.1962C55.8814 60.3583 56.9149 59.3203 57.4372 58.1945C57.8483 57.3084 58.6191 56.4838 59.596 56.4838Z" fill="#FDDDA5"/>
<path d="M48.3552 70.0613C48.3552 70.7815 48.0696 71.4722 47.5614 71.9815C47.0531 72.4907 46.3637 72.7768 45.6449 72.7768C44.9261 72.7768 44.2367 72.4907 43.7284 71.9815C43.2201 71.4722 42.9346 70.7815 42.9346 70.0613L45.6449 70.0613H48.3552Z" fill="#FDDDA5"/>
<path d="M27.4664 59.0147C26.9684 58.7267 26.6335 58.2026 26.5355 57.5578C26.4375 56.9131 26.5844 56.2005 26.9438 55.5768C27.3032 54.953 27.8457 54.4693 28.452 54.232C29.0583 53.9946 29.6787 54.0231 30.1767 54.3112L28.8215 56.663L27.4664 59.0147Z" fill="#FDDDA5"/>
<path d="M64.8688 59.0147C65.3668 58.7267 65.7017 58.2026 65.7997 57.5578C65.8977 56.9131 65.7508 56.2005 65.3914 55.5768C65.032 54.953 64.4895 54.4693 63.8832 54.232C63.2769 53.9946 62.6565 54.0231 62.1585 54.3112L63.5137 56.663L64.8688 59.0147Z" fill="#FDDDA5"/>
<path d="M45.1029 6.51758L42.2862 1.62956L47.9195 1.62956L45.1029 6.51758Z" fill="black"/>
<path d="M47.7452 47.6577L45.645 43.4492V51.0528C47.389 51.0528 48.5239 49.2181 47.7452 47.6577Z" fill="#FDDDA5" stroke="#FDDDA5" stroke-linecap="round" stroke-linejoin="round"/>
<path d="M41.0516 101.019L46.187 95.6865L38.7693 81.4668L35.3457 84.4292L41.0516 101.019Z" fill="#8E8E8E" stroke="#8E8E8E" stroke-linecap="round" stroke-linejoin="round"/>
<path d="M50.2382 101.019L45.1028 95.6865L52.5205 81.4668L55.9441 84.4292L50.2382 101.019Z" fill="#8E8E8E" stroke="#8E8E8E" stroke-linecap="round" stroke-linejoin="round"/>
<ellipse cx="32.0934" cy="36.9319" rx="1.08412" ry="1.08623" fill="white"/>
<ellipse cx="54.86" cy="36.9319" rx="1.08413" ry="1.08623" fill="white"/>
<path d="M47.7859 23.6672L54.6614 12.1221L59.3086 16.7784L47.7859 23.6672Z" fill="black"/>
<path d="M40.1971 24.7531L47.0725 13.2081L51.7198 17.8643L40.1971 24.7531Z" fill="black"/>
<path d="M33.6924 23.6672L40.5679 12.1221L45.2151 16.7784L33.6924 23.6672Z" fill="black"/>
<path d="M27.1875 23.6672L34.063 12.1221L38.7102 16.7784L27.1875 23.6672Z" fill="black"/>
<path d="M18.5147 26.926L25.3902 15.3809L30.0374 20.0372L18.5147 26.926Z" fill="black"/>
<path d="M64.388 25.8396L52.8653 18.9508L57.5125 14.2946L64.388 25.8396Z" fill="black"/>
<path d="M70.8926 26.9256L59.3699 20.0368L64.0171 15.3805L70.8926 26.9256Z" fill="black"/>
<path d="M26.1309 17.9225V15.207L30.4674 11.4052L38.5983 9.23271L47.2713 8.14648L56.4864 10.8621L64.6173 16.8363L61.3649 19.0088H56.4864L54.8602 16.8363L50.5237 17.9225L45.6451 16.8363L40.7665 15.207L38.5983 17.9225L34.8039 15.207L29.3832 20.095L26.1309 17.9225Z" fill="black" stroke="black" stroke-linecap="round" stroke-linejoin="round"/>
<path d="M37.7416 32.1884L27.757 32.1884L32.2314 28.2469L37.7416 32.1884Z" fill="#1A1A1A"/>
<path d="M53.3163 32.1884L63.3009 32.1884L58.8265 28.2469L53.3163 32.1884Z" fill="#1A1A1A"/>
<rect x="26.0886" y="38.5176" width="15.2619" height="8.77605" rx="2.5" fill="white" fill-opacity="0.44" stroke="#733000"/>
<rect x="51.0234" y="38.5176" width="15.2619" height="8.77605" rx="2.5" fill="white" fill-opacity="0.44" stroke="#733000"/>
<rect width="8.67721" height="1.0857" transform="matrix(0.865605 0.500727 -0.499274 0.866444 18.5417 38.0176)" fill="#733000"/>
<rect width="8.67721" height="1.0857" transform="matrix(-0.865605 0.500727 0.499274 0.866444 73.2124 38.0176)" fill="#733000"/>
<path d="M23.9625 21.8784C23.2356 21.8074 21.2483 21.1019 20.4947 21.8784C19.7412 22.655 19.0108 23.8297 18.3454 25.3355C17.68 26.8413 17.0925 28.6488 16.6164 30.6547C16.1404 32.6605 15.7852 34.8256 15.5711 37.0261C15.3569 39.2267 15.2881 41.4197 15.3684 43.48C15.4488 45.5402 15.6767 47.4273 16.0393 49.0336C16.4019 50.6398 16.8921 51.9337 17.4817 52.8415C18.0714 53.7492 18.749 54.2529 19.4759 54.324L20.4947 37.0261L23.9625 21.8784Z" fill="black"/>
<path d="M66.8002 21.4585C67.5271 21.3875 69.5144 20.682 70.268 21.4585C71.0215 22.235 71.7519 23.4097 72.4173 24.9156C73.0827 26.4214 73.6702 28.2288 74.1463 30.2347C74.6223 32.2406 74.9775 34.4057 75.1916 36.6062C75.4058 38.8068 75.4746 40.9998 75.3943 43.06C75.3139 45.1203 75.086 47.0074 74.7234 48.6136C74.3607 50.2199 73.8706 51.5138 73.281 52.4215C72.6913 53.3293 72.0137 53.833 71.2868 53.904L70.268 36.6062L66.8002 21.4585Z" fill="black"/>
<path d="M40.7664 44.535C40.7664 43.3826 41.3375 42.2775 42.3541 41.4627C43.3706 40.6478 44.7494 40.1901 46.187 40.1901C47.6247 40.1901 49.0034 40.6478 50.02 41.4627C51.0366 42.2775 51.6077 43.3826 51.6077 44.535L50.5102 44.535C50.5102 43.6159 50.0547 42.7345 49.244 42.0847C48.4332 41.4348 47.3336 41.0697 46.187 41.0697C45.0405 41.0697 43.9409 41.4348 43.1301 42.0847C42.3194 42.7345 41.8639 43.6159 41.8639 44.535L40.7664 44.535Z" fill="#733000"/>
<path d="M54.8601 106.45H59.7387H64.6172V112.533L59.7387 115.14L54.8601 112.533V106.45Z" fill="#8E8E8E"/>
<rect x="54.8601" y="106.45" width="9.75712" height="2.17245" fill="#D9D9D9"/>
</g>
<defs>
<clipPath id="clip0_511_36840">
<rect width="92.7273" height="120" fill="white"/>
</clipPath>
</defs>
</svg>
